<svg width="33" height="33" viewBox="0 0 33 33" fill="none" xmlns="http://www.w3.org/2000/svg">
<path d="M6.47175 0.00830078C2.91709 0.00830078 0.0078125 2.91752 0.0078125 6.47224V26.531C0.0078125 30.0857 2.91703 32.9939 6.47175 32.9939H26.5305C30.0852 32.9939 32.9934 30.0857 32.9934 26.531V6.47224C32.9934 2.91758 30.0852 0.00830078 26.5305 0.00830078H6.47175ZM8.09753 5.45159C9.80192 5.45159 10.8517 6.57048 10.8842 8.04126C10.8842 9.47957 9.80185 10.6299 8.06457 10.6299H8.03259C6.36064 10.6299 5.27999 9.47963 5.27999 8.04126C5.27999 6.57052 6.39335 5.45159 8.0975 5.45159H8.09753ZM22.7852 12.3258C26.063 12.3258 28.5202 14.4682 28.5202 19.0722V27.667H23.5388V19.6485C23.5388 17.6335 22.8178 16.2588 21.0151 16.2588C19.6389 16.2588 18.8185 17.1853 18.4584 18.0804C18.3268 18.4007 18.2945 18.8479 18.2945 19.2959V27.667H13.313C13.313 27.667 13.3784 14.0838 13.313 12.6773H18.2955V14.8C18.9575 13.7787 20.1416 12.3258 22.7852 12.3258V12.3258ZM5.57382 12.6784H10.5553V27.6671H5.57382V12.6784Z" fill="black"/>
</svg>
