<svg width="33" height="33" viewBox="0 0 33 33" fill="none" xmlns="http://www.w3.org/2000/svg">
<path d="M33 16.5C33 20.8761 31.2616 25.0729 28.1673 28.1673C25.0729 31.2616 20.8761 33 16.5 33C12.1239 33 7.92709 31.2616 4.83274 28.1673C1.73839 25.0729 0 20.8761 0 16.5C0 12.1239 1.73839 7.92709 4.83274 4.83274C7.92709 1.73839 12.1239 0 16.5 0C20.8761 0 25.0729 1.73839 28.1673 4.83274C31.2616 7.92709 33 12.1239 33 16.5ZM17.0919 12.1811C15.4873 12.8494 12.2781 14.2312 7.46831 16.3267C6.68869 16.6361 6.27825 16.9414 6.24113 17.2384C6.17925 17.7396 6.80831 17.9376 7.66425 18.2078L8.02519 18.3212C8.86669 18.5955 10.0011 18.9152 10.5889 18.9276C11.1251 18.9399 11.7212 18.7213 12.3791 18.2676C16.8733 15.2336 19.1936 13.7012 19.338 13.6682C19.4411 13.6434 19.5855 13.6146 19.6804 13.7012C19.7773 13.7858 19.767 13.9487 19.7567 13.992C19.6948 14.2581 17.226 16.5516 15.9493 17.7396C15.5512 18.1108 15.2687 18.3728 15.2109 18.4326C15.0838 18.5625 14.9545 18.6904 14.8232 18.8162C14.0394 19.5711 13.4537 20.1362 14.8541 21.0602C15.5286 21.5057 16.0689 21.8707 16.6073 22.2379C17.193 22.638 17.7787 23.0361 18.5378 23.5352C18.7296 23.6589 18.9152 23.793 19.0946 23.9209C19.7773 24.4076 20.394 24.8449 21.1509 24.7747C21.5923 24.7335 22.0481 24.321 22.2791 23.0835C22.8257 20.1609 23.9002 13.8311 24.1478 11.2221C24.1629 11.0052 24.1539 10.7873 24.1209 10.5724C24.1015 10.399 24.0176 10.2392 23.8858 10.1248C23.6981 9.99527 23.4744 9.92815 23.2464 9.933C22.6277 9.94331 21.6727 10.2754 17.0919 12.1811Z" fill="black"/>
</svg>
