<svg width="27" height="31" viewBox="0 0 27 31" fill="none" xmlns="http://www.w3.org/2000/svg">
<path d="M23.5663 6.64775C23.3574 6.53974 23.1541 6.42134 22.9571 6.293C22.3847 5.91449 21.8598 5.46854 21.3938 4.96475C20.2264 3.62962 19.7905 2.27525 19.631 1.32787H19.6365C19.5031 0.54 19.5581 0.03125 19.5678 0.03125H14.2534V20.5779C14.2534 20.8529 14.2534 21.1265 14.2424 21.396C14.2424 21.429 14.2383 21.4592 14.2369 21.4964C14.2369 21.5101 14.2369 21.5266 14.2328 21.5417V21.5541C14.177 22.2912 13.9409 23.0032 13.5452 23.6275C13.1496 24.2519 12.6066 24.7694 11.964 25.1346C11.2936 25.516 10.5353 25.716 9.76401 25.7149C7.28901 25.7149 5.28151 23.6964 5.28151 21.2035C5.28151 18.7093 7.28901 16.6908 9.76401 16.6908C10.2329 16.6908 10.699 16.765 11.1445 16.9107L11.1514 11.4988C9.79841 11.3242 8.42393 11.432 7.11472 11.8154C5.8055 12.1988 4.58998 12.8494 3.54489 13.7262C2.62894 14.5217 1.85884 15.471 1.26926 16.5312C1.04514 16.9176 0.198138 18.4727 0.0963878 20.9945C0.0317628 22.4245 0.462138 23.9095 0.667013 24.5214V24.5351C0.794888 24.8954 1.29539 26.1274 2.10939 27.1655C2.76581 27.9988 3.54138 28.7308 4.41114 29.338V29.3243L4.42351 29.338C6.99476 31.0842 9.84789 30.9701 9.84789 30.9701C10.3415 30.9495 11.9956 30.9701 13.8739 30.0805C15.957 29.0933 17.1423 27.6234 17.1423 27.6234C17.9 26.7449 18.5027 25.7438 18.9243 24.663C19.4055 23.398 19.565 21.8827 19.565 21.2778V10.3754C19.6296 10.4139 20.489 10.9817 20.489 10.9817C20.489 10.9817 21.7265 11.7751 23.6556 12.2908C25.0389 12.6579 26.9048 12.7362 26.9048 12.7362V7.46037C26.2516 7.53187 24.9248 7.32563 23.5649 6.64913L23.5663 6.64775Z" fill="black"/>
</svg>
