<svg width="284" height="370" viewBox="0 0 284 370" fill="none" xmlns="http://www.w3.org/2000/svg">
<path d="M226.123 13.145V258.021C226.123 272.581 222.912 287.064 216.158 300.203C215.741 301.004 215.324 301.792 214.893 302.58C203.97 322.463 186.07 338.471 164.182 347.798C150.59 353.612 135.469 356.855 119.529 356.855C74.1539 356.855 35.3661 330.59 19.801 293.537L19.7176 293.343C15.868 284.144 13.8945 274.364 13.8945 264.494V230.218H91.7342V254.391C91.7342 261.031 97.5155 266.406 104.659 266.406C107.494 266.406 109.801 264.261 109.801 261.625V13.145H226.123Z" fill="#56BFD9"/>
<path d="M119.532 369.775C94.7112 369.775 70.8631 362.837 50.559 349.698C30.7273 336.869 15.6207 319.078 6.86534 298.239L6.78196 298.058C2.27918 287.297 0 276.018 0 264.494V217.299H95.9064V0.225586H240.023V258.021C240.023 274.855 236.104 291.366 228.697 305.771C228.238 306.676 227.752 307.567 227.265 308.459C214.938 330.913 194.578 349.052 169.966 359.542C154.095 366.325 137.126 369.775 119.518 369.775H119.532ZM27.7949 243.138V264.494C27.7949 272.788 29.4348 280.927 32.6729 288.666L32.7424 288.834C46.8066 322.321 80.8693 343.948 119.532 343.948C133.096 343.948 146.16 341.3 158.375 336.068C177.345 327.98 193.022 314.014 202.514 296.715C202.889 296.03 203.264 295.345 203.612 294.648C209.24 283.692 212.214 271.031 212.214 258.034V26.0646H123.687V261.626C123.687 271.38 115.14 279.325 104.648 279.325C89.861 279.325 77.8258 268.137 77.8258 254.391V243.138H27.7949Z" fill="#1D1D1B"/>
<path d="M99.1719 361.287L158.389 336.055C177.345 327.98 193.008 314.001 202.513 296.702C202.889 296.017 203.264 295.333 203.611 294.635C209.24 283.679 212.214 271.018 212.214 258.021V0.225586H283.591V251.484C283.591 268.034 279.658 284.235 272.209 298.33C271.75 299.208 271.264 300.087 270.778 300.953C250.209 337.411 209.407 360.318 164.309 360.705L99.1719 361.274V361.287ZM240.023 26.0646V258.021C240.023 274.855 236.104 291.366 228.696 305.771C228.238 306.676 227.751 307.567 227.265 308.459C226.042 310.681 224.735 312.877 223.36 315.009C232.629 307.916 240.426 299.118 246.165 288.95C246.54 288.292 246.901 287.621 247.262 286.95C247.262 286.949 247.263 286.949 247.263 286.948C252.85 276.367 255.81 264.093 255.81 251.484V26.0646H240.023Z" fill="#1D1D1B"/>
<path d="M240.023 26.0646V258.021C240.023 274.855 236.104 291.366 228.696 305.771C228.238 306.676 227.751 307.567 227.265 308.459C226.042 310.681 224.735 312.877 223.36 315.009C232.629 307.916 240.426 299.118 246.165 288.95C246.54 288.292 246.901 287.621 247.262 286.95L247.263 286.948C252.85 276.367 255.81 264.093 255.81 251.484V26.0646H240.023Z" fill="#EBB33F"/>
</svg>
