<svg width="187" height="52" viewBox="0 0 187 52" fill="none" xmlns="http://www.w3.org/2000/svg">
<path d="M27.4186 7.48389V34.8165C27.4186 36.4417 27.0293 38.0582 26.2103 39.5248C26.1597 39.6142 26.1091 39.7021 26.0569 39.7901C24.7323 42.0094 22.5618 43.7961 19.9075 44.8373C18.2594 45.4862 16.4259 45.8482 14.4929 45.8482C8.9907 45.8482 4.28726 42.9165 2.39981 38.7807L2.3897 38.759C1.92289 37.7323 1.68359 36.6407 1.68359 35.5389V31.7132H11.1225V34.4113C11.1225 35.1525 11.8236 35.7524 12.6898 35.7524C13.0335 35.7524 13.3133 35.513 13.3133 35.2188V7.48389H27.4186Z" fill="#56BFD9"/>
<path d="M14.4946 47.2904C11.4848 47.2904 8.59293 46.516 6.13082 45.0494C3.72602 43.6175 1.89419 41.6318 0.832498 39.3057L0.822386 39.2855C0.276376 38.0843 0 36.8254 0 35.5391V30.2713H11.6297V6.04199H29.1054V34.8166C29.1054 36.6956 28.6302 38.5386 27.7319 40.1464C27.6763 40.2474 27.6174 40.3469 27.5584 40.4464C26.0636 42.9527 23.5947 44.9773 20.6102 46.1482C18.6857 46.9053 16.628 47.2904 14.4929 47.2904H14.4946ZM3.37044 33.1554V35.5391C3.37044 36.4649 3.56929 37.3734 3.96195 38.2372L3.97037 38.2559C5.67581 41.9937 9.80628 44.4077 14.4946 44.4077C16.1393 44.4077 17.7234 44.1121 19.2047 43.528C21.5051 42.6253 23.406 41.0665 24.557 39.1356C24.6025 39.0591 24.648 38.9827 24.6901 38.9048C25.3726 37.682 25.7333 36.2688 25.7333 34.8181V8.92609H14.9984V35.219C14.9984 36.3077 13.962 37.1946 12.6897 37.1946C10.8966 37.1946 9.43722 35.9458 9.43722 34.4114V33.1554H3.37044Z" fill="#1D1D1B"/>
<path d="M12.0273 46.3429L19.2081 43.5266C21.5067 42.6253 23.4059 41.065 24.5586 39.1341C24.6041 39.0577 24.6496 38.9813 24.6918 38.9034C25.3743 37.6805 25.7349 36.2673 25.7349 34.8166V6.04199H34.3902V34.087C34.3902 35.9342 33.9133 37.7426 33.01 39.3158C32.9544 39.4139 32.8954 39.512 32.8364 39.6086C30.3423 43.678 25.3945 46.2348 19.926 46.278L12.0273 46.3415V46.3429ZM29.107 8.92609V34.8166C29.107 36.6956 28.6318 38.5386 27.7336 40.1465C27.678 40.2474 27.619 40.3469 27.56 40.4464C27.4117 40.6944 27.2533 40.9396 27.0865 41.1775C28.2105 40.3858 29.1559 39.4038 29.8519 38.2689C29.8973 38.1954 29.9411 38.1206 29.9849 38.0457C29.9849 38.0456 29.985 38.0455 29.985 38.0454C30.6625 36.8643 31.0214 35.4944 31.0214 34.087V8.92609H29.107Z" fill="#1D1D1B"/>
<path d="M29.107 8.92609V34.8166C29.107 36.6956 28.6318 38.5386 27.7336 40.1465C27.678 40.2474 27.619 40.3469 27.56 40.4464C27.4117 40.6944 27.2533 40.9396 27.0865 41.1775C28.2105 40.3858 29.1559 39.4038 29.8519 38.2689C29.8973 38.1954 29.9411 38.1206 29.9849 38.0457L29.985 38.0454C30.6625 36.8643 31.0214 35.4944 31.0214 34.087V8.92609H29.107Z" fill="#EBB33F"/>
<path d="M39.7969 36.6739V24.8415H42.934V36.6739C42.934 38.3902 43.2352 39.6519 43.8376 40.4589C44.4514 41.2659 45.3948 41.6694 46.6679 41.6694C48.1455 41.6694 49.2764 41.1522 50.0607 40.1179C50.845 39.0722 51.2371 37.5775 51.2371 35.6338V24.8415H54.3913V43.9029H51.2371V41.0386C50.6802 42.1411 49.9186 42.9765 48.9525 43.5448C47.9977 44.1132 46.8781 44.3973 45.5937 44.3973C43.6387 44.3973 42.1838 43.7608 41.229 42.4878C40.2743 41.2034 39.7969 39.2654 39.7969 36.6739Z" fill="black"/>
<path d="M73.3354 32.0705V43.9029H70.1813V32.0705C70.1813 30.3541 69.8801 29.0925 69.2776 28.2855C68.6752 27.4785 67.7318 27.0749 66.4474 27.0749C64.9811 27.0749 63.8502 27.5978 63.0545 28.6435C62.2703 29.6778 61.8781 31.1668 61.8781 33.1105V43.9029H58.741V24.8074H61.8781V27.6717C62.4351 26.5805 63.1909 25.7564 64.1457 25.1995C65.1005 24.6312 66.2315 24.347 67.5386 24.347C69.4822 24.347 70.9314 24.9892 71.8862 26.2736C72.8524 27.5467 73.3354 29.4789 73.3354 32.0705Z" fill="black"/>
<path d="M79.7481 24.8756H87.7785V41.4648H94.0016V43.9029H78.4183V41.4648H84.6414V27.3136H79.7481V24.8756ZM84.6414 17.459H87.7785V21.4145H84.6414V17.459Z" fill="black"/>
<path d="M95.0095 24.8074H98.266L103.807 40.834L109.365 24.8074H112.622L105.836 43.9029H101.795L95.0095 24.8074Z" fill="black"/>
<path d="M131.344 32.7866V34.321H117.756V34.4233C117.665 37.0262 118.159 38.896 119.239 40.0326C120.33 41.1693 121.865 41.7376 123.842 41.7376C124.843 41.7376 125.888 41.5785 126.98 41.2602C128.071 40.9419 129.236 40.4589 130.475 39.811V42.9311C129.281 43.4198 128.128 43.7835 127.014 44.0222C125.911 44.2723 124.843 44.3973 123.808 44.3973C120.842 44.3973 118.523 43.5107 116.852 41.7376C115.181 39.9531 114.346 37.4979 114.346 34.3722C114.346 31.326 115.164 28.8936 116.801 27.0749C118.438 25.2563 120.62 24.347 123.348 24.347C125.78 24.347 127.696 25.1711 129.094 26.8192C130.503 28.4673 131.253 30.4564 131.344 32.7866ZM128.207 31.8659C128.071 30.5474 127.588 29.4107 126.758 28.456C125.94 27.4898 124.757 27.0067 123.212 27.0067C121.7 27.0067 120.455 27.5069 119.478 28.5071C118.5 29.5074 117.966 30.6326 117.875 31.8829L128.207 31.8659Z" fill="black"/>
<path d="M150.187 28.7458C149.516 28.223 148.834 27.8422 148.141 27.6035C147.447 27.3648 146.686 27.2454 145.856 27.2454C143.901 27.2454 142.406 27.8592 141.372 29.0868C140.338 30.3144 139.821 32.0875 139.821 34.4063V43.9029H136.666V24.8074H139.821V28.5412C140.343 27.1886 141.145 26.1543 142.225 25.4382C143.316 24.7107 144.606 24.347 146.095 24.347C146.868 24.347 147.59 24.4436 148.26 24.6369C148.931 24.8301 149.573 25.1313 150.187 25.5405V28.7458Z" fill="black"/>
<path d="M165.33 25.4723V28.5412C164.432 28.0184 163.528 27.6262 162.619 27.3648C161.709 27.1034 160.783 26.9726 159.84 26.9726C158.419 26.9726 157.356 27.2057 156.651 27.6717C155.958 28.1263 155.611 28.8254 155.611 29.7688C155.611 30.6213 155.873 31.2578 156.396 31.6783C156.918 32.0989 158.22 32.5081 160.3 32.9059L161.562 33.1446C163.119 33.4401 164.295 34.0312 165.091 34.9178C165.898 35.8043 166.301 36.958 166.301 38.3788C166.301 40.2656 165.631 41.7433 164.289 42.8117C162.948 43.8688 161.084 44.3973 158.697 44.3973C157.754 44.3973 156.765 44.295 155.731 44.0904C154.696 43.8972 153.577 43.6017 152.372 43.2038V39.9644C153.543 40.5668 154.662 41.0215 155.731 41.3284C156.799 41.6239 157.811 41.7717 158.765 41.7717C160.152 41.7717 161.226 41.4932 161.988 40.9363C162.749 40.3679 163.13 39.578 163.13 38.5664C163.13 37.1115 161.738 36.1055 158.953 35.5486L158.817 35.5145L157.64 35.2758C155.833 34.9234 154.514 34.3324 153.685 33.5026C152.855 32.6615 152.44 31.5192 152.44 30.0757C152.44 28.2457 153.06 26.8363 154.298 25.8474C155.537 24.8471 157.305 24.347 159.601 24.347C160.624 24.347 161.607 24.4436 162.55 24.6369C163.494 24.8187 164.42 25.0972 165.33 25.4723Z" fill="black"/>
<path d="M186.082 32.7866V34.321H172.493V34.4233C172.402 37.0262 172.897 38.896 173.976 40.0326C175.068 41.1693 176.602 41.7376 178.58 41.7376C179.58 41.7376 180.626 41.5785 181.717 41.2602C182.808 40.9419 183.973 40.4589 185.212 39.811V42.9311C184.019 43.4198 182.865 43.7835 181.751 44.0222C180.648 44.2723 179.58 44.3973 178.546 44.3973C175.579 44.3973 173.26 43.5107 171.589 41.7376C169.919 39.9531 169.083 37.4979 169.083 34.3722C169.083 31.326 169.902 28.8936 171.538 27.0749C173.175 25.2563 175.357 24.347 178.085 24.347C180.518 24.347 182.433 25.1711 183.831 26.8192C185.24 28.4673 185.991 30.4564 186.082 32.7866ZM182.944 31.8659C182.808 30.5474 182.325 29.4107 181.495 28.456C180.677 27.4898 179.495 27.0067 177.949 27.0067C176.437 27.0067 175.193 27.5069 174.215 28.5071C173.238 29.5074 172.703 30.6326 172.612 31.8829L182.944 31.8659Z" fill="black"/>
</svg>
