<svg width="134" height="20" viewBox="0 0 134 20" fill="none" xmlns="http://www.w3.org/2000/svg">
<path d="M0.844688 15V7.38C0.844688 6.98 0.831354 6.57333 0.804688 6.16C0.791354 5.74667 0.764688 5.34667 0.724688 4.96H2.28469L2.48469 7.4L2.20469 7.42C2.33802 6.82 2.57135 6.32667 2.90469 5.94C3.23802 5.55333 3.63135 5.26667 4.08469 5.08C4.53802 4.88 5.01135 4.78 5.50469 4.78C5.70469 4.78 5.87802 4.78667 6.02469 4.8C6.18469 4.81333 6.33135 4.84667 6.46469 4.9L6.44469 6.34C6.24469 6.27333 6.05802 6.23333 5.88469 6.22C5.72469 6.19333 5.53802 6.18 5.32469 6.18C4.73802 6.18 4.22469 6.32 3.78469 6.6C3.35802 6.88 3.03135 7.24 2.80469 7.68C2.59135 8.12 2.48469 8.58667 2.48469 9.08V15H0.844688ZM12.1531 15.18C11.1931 15.18 10.3531 14.9733 9.63313 14.56C8.92646 14.1333 8.37979 13.5333 7.99313 12.76C7.60646 11.9733 7.41313 11.0467 7.41313 9.98C7.41313 8.9 7.60646 7.97333 7.99313 7.2C8.37979 6.42667 8.92646 5.83333 9.63313 5.42C10.3531 4.99333 11.1931 4.78 12.1531 4.78C13.1265 4.78 13.9665 4.99333 14.6731 5.42C15.3931 5.83333 15.9465 6.42667 16.3331 7.2C16.7331 7.97333 16.9331 8.9 16.9331 9.98C16.9331 11.0467 16.7331 11.9733 16.3331 12.76C15.9465 13.5333 15.3931 14.1333 14.6731 14.56C13.9665 14.9733 13.1265 15.18 12.1531 15.18ZM12.1531 13.86C13.1131 13.86 13.8731 13.5333 14.4331 12.88C14.9931 12.2133 15.2731 11.2467 15.2731 9.98C15.2731 8.7 14.9865 7.73333 14.4131 7.08C13.8531 6.41333 13.0998 6.08 12.1531 6.08C11.2065 6.08 10.4531 6.41333 9.89313 7.08C9.33313 7.73333 9.05313 8.7 9.05313 9.98C9.05313 11.2467 9.33313 12.2133 9.89313 12.88C10.4531 13.5333 11.2065 13.86 12.1531 13.86ZM18.7617 15V13.92L25.5217 5.8L25.5417 6.22H18.7617V4.96H27.0417V6.04L20.2017 14.2L20.1817 13.74H27.2617V15H18.7617ZM29.6728 15V7.38C29.6728 6.98 29.6595 6.57333 29.6328 6.16C29.6195 5.74667 29.5928 5.34667 29.5528 4.96H31.1128L31.3128 7.4L31.0328 7.42C31.1661 6.82 31.3995 6.32667 31.7328 5.94C32.0661 5.55333 32.4595 5.26667 32.9128 5.08C33.3661 4.88 33.8395 4.78 34.3328 4.78C34.5328 4.78 34.7061 4.78667 34.8528 4.8C35.0128 4.81333 35.1595 4.84667 35.2928 4.9L35.2728 6.34C35.0728 6.27333 34.8861 6.23333 34.7128 6.22C34.5528 6.19333 34.3661 6.18 34.1528 6.18C33.5661 6.18 33.0528 6.32 32.6128 6.6C32.1861 6.88 31.8595 7.24 31.6328 7.68C31.4195 8.12 31.3128 8.58667 31.3128 9.08V15H29.6728ZM40.9813 15.18C40.0213 15.18 39.1813 14.9733 38.4613 14.56C37.7546 14.1333 37.2079 13.5333 36.8213 12.76C36.4346 11.9733 36.2413 11.0467 36.2413 9.98C36.2413 8.9 36.4346 7.97333 36.8213 7.2C37.2079 6.42667 37.7546 5.83333 38.4613 5.42C39.1813 4.99333 40.0213 4.78 40.9813 4.78C41.9546 4.78 42.7946 4.99333 43.5013 5.42C44.2213 5.83333 44.7746 6.42667 45.1613 7.2C45.5613 7.97333 45.7613 8.9 45.7613 9.98C45.7613 11.0467 45.5613 11.9733 45.1613 12.76C44.7746 13.5333 44.2213 14.1333 43.5013 14.56C42.7946 14.9733 41.9546 15.18 40.9813 15.18ZM40.9813 13.86C41.9413 13.86 42.7013 13.5333 43.2613 12.88C43.8213 12.2133 44.1013 11.2467 44.1013 9.98C44.1013 8.7 43.8146 7.73333 43.2413 7.08C42.6813 6.41333 41.9279 6.08 40.9813 6.08C40.0346 6.08 39.2813 6.41333 38.7213 7.08C38.1613 7.73333 37.8813 8.7 37.8813 9.98C37.8813 11.2467 38.1613 12.2133 38.7213 12.88C39.2813 13.5333 40.0346 13.86 40.9813 13.86ZM53.327 15.18C52.4204 15.18 51.6404 14.9533 50.987 14.5C50.3337 14.0333 49.8937 13.4 49.667 12.6H49.887V15H48.287V0.279999H49.907V7.3H49.667C49.8937 6.52667 50.3337 5.91333 50.987 5.46C51.6404 5.00667 52.4204 4.78 53.327 4.78C54.2337 4.78 55.0137 4.99333 55.667 5.42C56.3337 5.83333 56.847 6.42667 57.207 7.2C57.5804 7.97333 57.767 8.9 57.767 9.98C57.767 11.06 57.5804 11.9867 57.207 12.76C56.8337 13.5333 56.3137 14.1333 55.647 14.56C54.9937 14.9733 54.2204 15.18 53.327 15.18ZM52.987 13.86C53.9337 13.86 54.6937 13.5333 55.267 12.88C55.8404 12.2267 56.127 11.26 56.127 9.98C56.127 8.7 55.8404 7.73333 55.267 7.08C54.6937 6.41333 53.9337 6.08 52.987 6.08C52.0404 6.08 51.2804 6.41333 50.707 7.08C50.147 7.73333 49.867 8.7 49.867 9.98C49.867 11.2467 50.147 12.2133 50.707 12.88C51.2804 13.5333 52.0404 13.86 52.987 13.86ZM60.2792 15V7.28C60.2792 6.90667 60.2592 6.52667 60.2192 6.14C60.1926 5.74 60.1592 5.34667 60.1192 4.96H61.6792L61.8792 7.16H61.6392C61.9326 6.38667 62.3992 5.8 63.0392 5.4C63.6926 4.98667 64.4459 4.78 65.2992 4.78C66.4859 4.78 67.3792 5.1 67.9792 5.74C68.5926 6.36667 68.8992 7.36 68.8992 8.72V15H67.2792V8.82C67.2792 7.87333 67.0859 7.18667 66.6992 6.76C66.3259 6.32 65.7392 6.1 64.9392 6.1C64.0059 6.1 63.2659 6.38667 62.7192 6.96C62.1726 7.53333 61.8992 8.3 61.8992 9.26V15H60.2792ZM71.5003 19.54L71.1203 18.2C71.747 18.0533 72.267 17.88 72.6803 17.68C73.107 17.4933 73.4603 17.24 73.7403 16.92C74.0203 16.6 74.2603 16.2 74.4603 15.72L74.9803 14.54L74.9403 15.22L70.5603 4.96H72.3203L75.9403 13.78H75.4203L79.0003 4.96H80.7003L76.0603 15.84C75.7936 16.48 75.5003 17.0133 75.1803 17.44C74.8603 17.88 74.5136 18.2333 74.1403 18.5C73.7803 18.78 73.3803 19 72.9403 19.16C72.5003 19.32 72.0203 19.4467 71.5003 19.54ZM82.5253 15V0.279999H84.1453V9.42H84.1853L88.8453 4.96H90.8853L85.3853 10.2L85.4253 9.38L91.4053 15H89.3053L84.1853 10.28H84.1453V15H82.5253ZM92.7131 15V12.96H94.7531V15H92.7131Z" fill="#039BE5"/>
<path d="M101.804 15.18C100.817 15.18 99.9572 14.9667 99.2239 14.54C98.5039 14.1133 97.9439 13.5067 97.5439 12.72C97.1572 11.9333 96.9639 11 96.9639 9.92C96.9639 8.82667 97.1639 7.9 97.5639 7.14C97.9639 6.36667 98.5239 5.78 99.2439 5.38C99.9772 4.98 100.831 4.78 101.804 4.78C102.444 4.78 103.064 4.89333 103.664 5.12C104.277 5.34667 104.784 5.66667 105.184 6.08L104.604 7.24C104.204 6.85333 103.764 6.56667 103.284 6.38C102.817 6.19333 102.357 6.1 101.904 6.1C100.864 6.1 100.057 6.42667 99.4839 7.08C98.9106 7.73333 98.6239 8.68667 98.6239 9.94C98.6239 11.18 98.9106 12.14 99.4839 12.82C100.057 13.5 100.864 13.84 101.904 13.84C102.344 13.84 102.797 13.7533 103.264 13.58C103.744 13.4067 104.191 13.12 104.604 12.72L105.184 13.86C104.771 14.2867 104.257 14.6133 103.644 14.84C103.031 15.0667 102.417 15.18 101.804 15.18ZM111.411 15.18C110.451 15.18 109.611 14.9733 108.891 14.56C108.184 14.1333 107.638 13.5333 107.251 12.76C106.864 11.9733 106.671 11.0467 106.671 9.98C106.671 8.9 106.864 7.97333 107.251 7.2C107.638 6.42667 108.184 5.83333 108.891 5.42C109.611 4.99333 110.451 4.78 111.411 4.78C112.384 4.78 113.224 4.99333 113.931 5.42C114.651 5.83333 115.204 6.42667 115.591 7.2C115.991 7.97333 116.191 8.9 116.191 9.98C116.191 11.0467 115.991 11.9733 115.591 12.76C115.204 13.5333 114.651 14.1333 113.931 14.56C113.224 14.9733 112.384 15.18 111.411 15.18ZM111.411 13.86C112.371 13.86 113.131 13.5333 113.691 12.88C114.251 12.2133 114.531 11.2467 114.531 9.98C114.531 8.7 114.244 7.73333 113.671 7.08C113.111 6.41333 112.358 6.08 111.411 6.08C110.464 6.08 109.711 6.41333 109.151 7.08C108.591 7.73333 108.311 8.7 108.311 9.98C108.311 11.2467 108.591 12.2133 109.151 12.88C109.711 13.5333 110.464 13.86 111.411 13.86ZM118.717 15V7.28C118.717 6.90667 118.697 6.52667 118.657 6.14C118.63 5.74 118.597 5.34667 118.557 4.96H120.117L120.317 7.16H120.077C120.343 6.4 120.763 5.81333 121.337 5.4C121.923 4.98667 122.63 4.78 123.457 4.78C124.297 4.78 124.977 4.98 125.497 5.38C126.03 5.78 126.39 6.4 126.577 7.24H126.277C126.53 6.48 126.977 5.88 127.617 5.44C128.257 5 129.003 4.78 129.857 4.78C130.963 4.78 131.797 5.1 132.357 5.74C132.917 6.36667 133.197 7.36 133.197 8.72V15H131.577V8.82C131.577 7.87333 131.41 7.18667 131.077 6.76C130.743 6.32 130.21 6.1 129.477 6.1C128.637 6.1 127.97 6.39333 127.477 6.98C126.997 7.55333 126.757 8.32667 126.757 9.3V15H125.137V8.82C125.137 7.87333 124.97 7.18667 124.637 6.76C124.303 6.32 123.77 6.1 123.037 6.1C122.197 6.1 121.537 6.39333 121.057 6.98C120.577 7.55333 120.337 8.32667 120.337 9.3V15H118.717Z" fill="black"/>
</svg>
