<svg xmlns="http://www.w3.org/2000/svg" viewBox="0 0 309.2 124.11"><defs><style>.cls-1{fill:#fc0;}</style></defs><title>left_ua</title><g id="Layer_2" data-name="Layer 2"><g id="Layer_1-2" data-name="Layer 1"><polygon class="cls-1" points="308.83 59.93 309.2 59.7 309.2 60.15 308.83 59.93"/><polygon class="cls-1" points="283.42 58.49 285.76 59.93 283.42 61.36 283.42 58.49"/><polygon class="cls-1" points="267.79 59.93 273.75 56.29 273.75 63.56 267.79 59.93"/><polygon class="cls-1" points="265.11 70.51 266.4 71.3 265.11 72.1 265.11 70.51"/><polygon class="cls-1" points="243.72 54.15 253.19 59.93 243.72 65.7 243.72 54.15"/><polygon class="cls-1" points="251.61 71.3 253.84 69.94 253.84 72.67 251.61 71.3"/><polygon class="cls-1" points="227.85 47.87 228.96 48.55 227.85 49.23 227.85 47.87"/><polygon class="cls-1" points="228.23 59.93 237.54 54.25 237.54 65.6 228.23 59.93"/><polygon class="cls-1" points="212.37 48.55 217.48 45.43 217.48 51.67 212.37 48.55"/><polygon class="cls-1" points="225.43 66.21 233.79 71.3 225.43 76.4 225.43 66.21"/><polygon class="cls-1" points="205.26 52.08 218.14 59.93 205.26 67.78 205.26 52.08"/><polygon class="cls-1" points="210.21 71.3 218.56 66.21 218.56 76.4 210.21 71.3"/><polygon class="cls-1" points="189.15 45.34 194.4 48.55 189.15 51.75 189.15 45.34"/><polygon class="cls-1" points="188.53 59.93 201.41 52.08 201.41 67.78 188.53 59.93"/><polygon class="cls-1" points="209.56 82.68 209.56 82.68 209.56 82.68 209.56 82.68"/><polygon class="cls-1" points="174.29 48.55 180.54 44.74 180.54 52.36 174.29 48.55"/><polygon class="cls-1" points="187.36 64.83 197.97 71.3 187.36 77.78 187.36 64.83"/><polygon class="cls-1" points="167.94 52.08 180.82 59.93 167.94 67.78 167.94 52.08"/><polygon class="cls-1" points="169.87 71.3 182.75 63.45 182.75 79.16 169.87 71.3"/><polygon class="cls-1" points="152.68 46.91 155.37 48.55 152.68 50.19 152.68 46.91"/><polygon class="cls-1" points="151.21 59.93 164.09 52.08 164.09 67.78 151.21 59.93"/><polygon class="cls-1" points="171.34 81.04 174.03 82.68 171.34 84.32 171.34 81.04"/><polygon class="cls-1" points="190 115.17 192.69 116.82 190 118.46 190 115.17"/><polygon class="cls-1" points="115.79 2.18 117.19 3.04 115.79 3.89 115.79 2.18"/><polygon class="cls-1" points="122.08 14.41 122.67 14.05 122.67 14.78 122.08 14.41"/><polygon class="cls-1" points="139.02 48.55 142.19 46.62 142.19 50.48 139.02 48.55"/><polygon class="cls-1" points="149.28 63.45 162.16 71.3 149.28 79.16 149.28 63.45"/><polygon class="cls-1" points="157.44 82.68 160.97 80.53 160.97 84.84 157.44 82.68"/><polygon class="cls-1" points="177.46 116.82 178.96 115.9 178.96 117.73 177.46 116.82"/><polygon class="cls-1" points="130.62 52.08 143.5 59.93 130.62 67.78 130.62 52.08"/><polygon class="cls-1" points="132.55 71.3 145.43 63.45 145.43 79.16 132.55 71.3"/><polygon class="cls-1" points="114.17 44.74 120.42 48.55 114.17 52.36 114.17 44.74"/><polygon class="cls-1" points="113.89 59.93 126.77 52.08 126.77 67.78 113.89 59.93"/><polygon class="cls-1" points="132.49 78.24 139.77 82.68 132.49 87.12 132.49 78.24"/><polygon class="cls-1" points="152.52 114.89 155.69 116.82 152.52 118.75 152.52 114.89"/><polygon class="cls-1" points="101.12 48.55 105.16 46.08 105.16 51.02 101.12 48.55"/><polygon class="cls-1" points="111.96 63.45 124.84 71.3 111.96 79.16 111.96 63.45"/><polygon class="cls-1" points="117.62 82.68 124.9 78.24 124.9 87.12 117.62 82.68"/><polygon class="cls-1" points="136.28 116.82 143.56 112.38 143.56 121.26 136.28 116.82"/><polygon class="cls-1" points="85.07 37.17 85.19 37.09 85.19 37.25 85.07 37.17"/><polygon class="cls-1" points="93.3 52.08 106.18 59.93 93.3 67.78 93.3 52.08"/><polygon class="cls-1" points="95.23 71.3 108.11 63.45 108.11 79.16 95.23 71.3"/><polygon class="cls-1" points="77.23 45.43 82.34 48.55 77.23 51.67 77.23 45.43"/><polygon class="cls-1" points="76.57 59.93 89.45 52.08 89.45 67.78 76.57 59.93"/><polygon class="cls-1" points="94.22 76.51 104.34 82.68 94.22 88.85 94.22 76.51"/><polygon class="cls-1" points="114.08 112.83 120.61 116.82 114.08 120.8 114.08 112.83"/><polygon class="cls-1" points="41.59 2.99 41.66 3.04 41.59 3.08 41.59 2.99"/><polygon class="cls-1" points="60.17 36.98 60.48 37.17 60.17 37.36 60.17 36.98"/><polygon class="cls-1" points="63.88 48.55 67.8 46.16 67.8 50.94 63.88 48.55"/><polygon class="cls-1" points="74.64 63.45 87.52 71.3 74.64 79.16 74.64 63.45"/><polygon class="cls-1" points="77.4 82.68 89.03 75.59 89.03 89.77 77.4 82.68"/><polygon class="cls-1" points="100.59 116.82 105.43 113.86 105.43 119.77 100.59 116.82"/><polygon class="cls-1" points="27.9 3.04 29.81 1.87 29.81 4.2 27.9 3.04"/><polygon class="cls-1" points="41.01 24.69 42.82 25.79 41.01 26.89 41.01 24.69"/><polygon class="cls-1" points="46.19 37.17 48.65 35.67 48.65 38.67 46.19 37.17"/><polygon class="cls-1" points="55.98 52.08 68.86 59.93 55.98 67.78 55.98 52.08"/><polygon class="cls-1" points="57.91 71.3 70.78 63.45 70.78 79.16 57.91 71.3"/><polygon class="cls-1" points="77.84 92.05 81.13 94.06 77.84 96.07 77.84 92.05"/><polygon class="cls-1" points="84.76 105.44 85.35 105.08 85.35 105.8 84.76 105.44"/><polygon class="cls-1" points="28.11 25.79 29.7 24.82 29.7 26.77 28.11 25.79"/><polygon class="cls-1" points="39.34 44.38 46.17 48.55 39.34 52.72 39.34 44.38"/><polygon class="cls-1" points="39.25 59.93 52.13 52.08 52.13 67.78 39.25 59.93"/><polygon class="cls-1" points="55.98 74.83 68.86 82.68 55.98 90.53 55.98 74.83"/><polygon class="cls-1" points="62.99 94.06 68.25 90.86 68.25 97.26 62.99 94.06"/><polygon class="cls-1" points="76.95 113.18 82.91 116.82 76.95 120.45 76.95 113.18"/><polygon class="cls-1" points="2.63 0 7.61 3.04 2.63 6.07 2.63 0"/><polygon class="cls-1" points="9.58 14.41 10.98 13.56 10.98 15.27 9.58 14.41"/><polygon class="cls-1" points="21.86 35.16 25.15 37.17 21.86 39.18 21.86 35.16"/><polygon class="cls-1" points="24.32 48.55 31.6 44.11 31.6 52.99 24.32 48.55"/><polygon class="cls-1" points="37.32 63.45 50.2 71.3 37.32 79.16 37.32 63.45"/><polygon class="cls-1" points="39.25 82.68 52.13 74.83 52.13 90.53 39.25 82.68"/><polygon class="cls-1" points="59.34 103.73 62.15 105.44 59.34 107.15 59.34 103.73"/><polygon class="cls-1" points="65.22 116.82 67.13 115.65 67.13 117.98 65.22 116.82"/><polygon class="cls-1" points="8.56 37.17 11.49 35.38 11.49 38.95 8.56 37.17"/><polygon class="cls-1" points="18.66 52.08 31.54 59.93 18.66 67.78 18.66 52.08"/><polygon class="cls-1" points="20.59 71.3 33.47 63.45 33.47 79.16 20.59 71.3"/><polygon class="cls-1" points="37.68 86.87 49.48 94.06 37.68 101.25 37.68 86.87"/><polygon class="cls-1" points="43.47 105.44 50.01 101.45 50.01 109.42 43.47 105.44"/><polygon class="cls-1" points="0.53 41.67 11.82 48.55 0.53 55.43 0.53 41.67"/><polygon class="cls-1" points="1.93 59.93 14.8 52.08 14.8 67.78 1.93 59.93"/><polygon class="cls-1" points="18.66 74.83 31.54 82.68 18.66 90.53 18.66 74.83"/><polygon class="cls-1" points="21.08 94.06 33.22 86.66 33.22 101.46 21.08 94.06"/><polygon class="cls-1" points="40.79 115.32 43.25 116.82 40.79 118.32 40.79 115.32"/><polygon class="cls-1" points="0 63.45 12.88 71.3 0 79.16 0 63.45"/><polygon class="cls-1" points="1.93 82.68 14.8 74.83 14.8 90.53 1.93 82.68"/><polygon class="cls-1" points="19.74 99.57 29.37 105.44 19.74 111.31 19.74 99.57"/><polygon class="cls-1" points="24.22 116.82 31.65 112.28 31.65 121.35 24.22 116.82"/><polygon class="cls-1" points="1.35 88.68 10.18 94.06 1.35 99.44 1.35 88.68"/><polygon class="cls-1" points="5.04 105.44 13.25 100.44 13.25 110.44 5.04 105.44"/><polygon class="cls-1" points="0.3 109.52 12.27 116.82 0.3 124.11 0.3 109.52"/></g></g></svg>