<svg xmlns="http://www.w3.org/2000/svg" viewBox="0 0 294.41 124.11"><defs><style>.cls-1{fill:#fc0;}</style></defs><title>right_ua</title><g id="Layer_2" data-name="Layer 2"><g id="Layer_1-2" data-name="Layer 1"><polygon class="cls-1" points="0.35 64.19 0 64.41 0 63.96 0.35 64.19"/><polygon class="cls-1" points="24.55 65.62 22.32 64.19 24.55 62.76 24.55 65.62"/><polygon class="cls-1" points="39.44 64.19 33.76 67.82 33.76 60.55 39.44 64.19"/><polygon class="cls-1" points="41.99 53.6 40.75 52.81 41.99 52.02 41.99 53.6"/><polygon class="cls-1" points="62.35 69.96 53.33 64.19 62.35 58.41 62.35 69.96"/><polygon class="cls-1" points="54.84 52.81 52.71 54.17 52.71 51.45 54.84 52.81"/><polygon class="cls-1" points="77.46 76.24 76.41 75.56 77.46 74.89 77.46 76.24"/><polygon class="cls-1" points="77.1 64.19 68.23 69.86 68.23 58.51 77.1 64.19"/><polygon class="cls-1" points="92.2 75.56 87.33 78.69 87.33 72.44 92.2 75.56"/><polygon class="cls-1" points="79.76 57.9 71.81 52.81 79.76 47.71 79.76 57.9"/><polygon class="cls-1" points="98.96 72.04 86.7 64.19 98.96 56.34 98.96 72.04"/><polygon class="cls-1" points="94.26 52.81 86.3 57.9 86.3 47.71 94.26 52.81"/><polygon class="cls-1" points="114.31 78.77 109.31 75.56 114.31 72.36 114.31 78.77"/><polygon class="cls-1" points="114.89 64.19 102.64 72.04 102.64 56.34 114.89 64.19"/><polygon class="cls-1" points="94.88 41.43 94.88 41.43 94.88 41.43 94.88 41.43"/><polygon class="cls-1" points="128.46 75.56 122.51 79.37 122.51 71.76 128.46 75.56"/><polygon class="cls-1" points="116.01 59.28 105.91 52.81 116.01 46.34 116.01 59.28"/><polygon class="cls-1" points="134.5 72.04 122.24 64.19 134.5 56.34 134.5 72.04"/><polygon class="cls-1" points="132.66 52.81 120.4 60.66 120.4 44.96 132.66 52.81"/><polygon class="cls-1" points="149.03 77.21 146.47 75.56 149.03 73.92 149.03 77.21"/><polygon class="cls-1" points="150.43 64.19 138.17 72.04 138.17 56.34 150.43 64.19"/><polygon class="cls-1" points="131.27 43.07 128.7 41.43 131.27 39.79 131.27 43.07"/><polygon class="cls-1" points="113.5 8.94 110.94 7.3 113.5 5.66 113.5 8.94"/><polygon class="cls-1" points="184.16 121.93 182.83 121.08 184.16 120.22 184.16 121.93"/><polygon class="cls-1" points="178.17 109.7 177.6 110.06 177.6 109.34 178.17 109.7"/><polygon class="cls-1" points="162.04 75.56 159.02 77.5 159.02 73.63 162.04 75.56"/><polygon class="cls-1" points="152.27 60.66 140.01 52.81 152.27 44.96 152.27 60.66"/><polygon class="cls-1" points="144.5 41.43 141.13 43.59 141.13 39.27 144.5 41.43"/><polygon class="cls-1" points="125.44 7.3 124.02 8.21 124.02 6.38 125.44 7.3"/><polygon class="cls-1" points="170.03 72.04 157.77 64.19 170.03 56.34 170.03 72.04"/><polygon class="cls-1" points="168.2 52.81 155.94 60.66 155.94 44.96 168.2 52.81"/><polygon class="cls-1" points="185.7 79.37 179.75 75.56 185.7 71.76 185.7 79.37"/><polygon class="cls-1" points="185.97 64.19 173.71 72.04 173.71 56.34 185.97 64.19"/><polygon class="cls-1" points="168.26 45.87 161.32 41.43 168.26 36.99 168.26 45.87"/><polygon class="cls-1" points="149.19 9.23 146.17 7.3 149.19 5.37 149.19 9.23"/><polygon class="cls-1" points="198.13 75.56 194.28 78.03 194.28 73.1 198.13 75.56"/><polygon class="cls-1" points="187.8 60.66 175.54 52.81 187.8 44.96 187.8 60.66"/><polygon class="cls-1" points="182.41 41.43 175.48 45.87 175.48 36.99 182.41 41.43"/><polygon class="cls-1" points="164.65 7.3 157.71 11.74 157.71 2.86 164.65 7.3"/><polygon class="cls-1" points="213.41 86.94 213.29 87.02 213.29 86.87 213.41 86.94"/><polygon class="cls-1" points="205.57 72.04 193.31 64.19 205.57 56.34 205.57 72.04"/><polygon class="cls-1" points="203.73 52.81 191.47 60.66 191.47 44.96 203.73 52.81"/><polygon class="cls-1" points="220.87 78.69 216 75.56 220.87 72.44 220.87 78.69"/><polygon class="cls-1" points="221.5 64.19 209.24 72.04 209.24 56.34 221.5 64.19"/><polygon class="cls-1" points="204.69 47.6 195.06 41.43 204.69 35.26 204.69 47.6"/><polygon class="cls-1" points="185.79 11.28 179.56 7.3 185.79 3.31 185.79 11.28"/><polygon class="cls-1" points="254.81 121.12 254.74 121.08 254.81 121.03 254.81 121.12"/><polygon class="cls-1" points="237.11 87.13 236.82 86.94 237.11 86.76 237.11 87.13"/><polygon class="cls-1" points="233.58 75.56 229.85 77.95 229.85 73.18 233.58 75.56"/><polygon class="cls-1" points="223.34 60.66 211.08 52.81 223.34 44.96 223.34 60.66"/><polygon class="cls-1" points="220.71 41.43 209.64 48.52 209.64 34.34 220.71 41.43"/><polygon class="cls-1" points="198.63 7.3 194.02 10.25 194.02 4.34 198.63 7.3"/><polygon class="cls-1" points="267.84 121.08 266.02 122.24 266.02 119.91 267.84 121.08"/><polygon class="cls-1" points="255.36 99.42 253.64 98.32 255.36 97.22 255.36 99.42"/><polygon class="cls-1" points="250.42 86.94 248.08 88.44 248.08 85.44 250.42 86.94"/><polygon class="cls-1" points="241.1 72.04 228.84 64.19 241.1 56.34 241.1 72.04"/><polygon class="cls-1" points="239.27 52.81 227.01 60.66 227.01 44.96 239.27 52.81"/><polygon class="cls-1" points="220.29 32.06 217.16 30.05 220.29 28.05 220.29 32.06"/><polygon class="cls-1" points="213.71 18.68 213.14 19.04 213.14 18.31 213.71 18.68"/><polygon class="cls-1" points="267.64 98.32 266.12 99.3 266.12 97.35 267.64 98.32"/><polygon class="cls-1" points="256.95 79.73 250.45 75.56 256.95 71.4 256.95 79.73"/><polygon class="cls-1" points="257.04 64.19 244.78 72.04 244.78 56.34 257.04 64.19"/><polygon class="cls-1" points="241.1 49.28 228.84 41.43 241.1 33.58 241.1 49.28"/><polygon class="cls-1" points="234.43 30.05 229.43 33.26 229.43 26.85 234.43 30.05"/><polygon class="cls-1" points="221.14 10.93 215.47 7.3 221.14 3.66 221.14 10.93"/><polygon class="cls-1" points="291.9 124.11 287.16 121.08 291.9 118.04 291.9 124.11"/><polygon class="cls-1" points="285.28 109.7 283.95 110.55 283.95 108.85 285.28 109.7"/><polygon class="cls-1" points="273.6 88.95 270.46 86.94 273.6 84.94 273.6 88.95"/><polygon class="cls-1" points="271.25 75.56 264.32 80 264.32 71.13 271.25 75.56"/><polygon class="cls-1" points="258.87 60.66 246.61 52.81 258.87 44.96 258.87 60.66"/><polygon class="cls-1" points="257.04 41.43 244.78 49.28 244.78 33.58 257.04 41.43"/><polygon class="cls-1" points="237.91 20.39 235.23 18.68 237.91 16.96 237.91 20.39"/><polygon class="cls-1" points="232.31 7.3 230.49 8.46 230.49 6.13 232.31 7.3"/><polygon class="cls-1" points="286.25 86.94 283.47 88.73 283.47 85.16 286.25 86.94"/><polygon class="cls-1" points="276.64 72.04 264.38 64.19 276.64 56.34 276.64 72.04"/><polygon class="cls-1" points="274.8 52.81 262.54 60.66 262.54 44.96 274.8 52.81"/><polygon class="cls-1" points="258.53 37.24 247.3 30.05 258.53 22.86 258.53 37.24"/><polygon class="cls-1" points="253.01 18.68 246.79 22.66 246.79 14.69 253.01 18.68"/><polygon class="cls-1" points="293.9 82.45 283.15 75.56 293.9 68.68 293.9 82.45"/><polygon class="cls-1" points="292.57 64.19 280.31 72.04 280.31 56.34 292.57 64.19"/><polygon class="cls-1" points="276.64 49.28 264.38 41.43 276.64 33.58 276.64 49.28"/><polygon class="cls-1" points="274.33 30.05 262.78 37.45 262.78 22.65 274.33 30.05"/><polygon class="cls-1" points="255.56 8.8 253.22 7.3 255.56 5.79 255.56 8.8"/><polygon class="cls-1" points="294.41 60.66 282.15 52.81 294.41 44.96 294.41 60.66"/><polygon class="cls-1" points="292.57 41.43 280.31 49.28 280.31 33.58 292.57 41.43"/><polygon class="cls-1" points="275.61 24.55 266.44 18.68 275.61 12.8 275.61 24.55"/><polygon class="cls-1" points="271.35 7.3 264.27 11.83 264.27 2.76 271.35 7.3"/><polygon class="cls-1" points="293.12 35.44 284.71 30.05 293.12 24.67 293.12 35.44"/><polygon class="cls-1" points="289.6 18.68 281.79 23.68 281.79 13.67 289.6 18.68"/><polygon class="cls-1" points="294.12 14.59 282.72 7.3 294.12 0 294.12 14.59"/></g></g></svg>