<svg id="Layer_1" data-name="Layer 1" xmlns="http://www.w3.org/2000/svg" xmlns:xlink="http://www.w3.org/1999/xlink" viewBox="0 0 1178.85 131.79"><defs><style>.cls-1{fill:none;}.cls-2{clip-path:url(#clip-path);}.cls-3{fill:#fc0;}</style><clipPath id="clip-path"><rect class="cls-1" width="1178.85" height="201.6"/></clipPath></defs><title>ua1</title><g class="cls-2"><polygon class="cls-3" points="887.14 62.69 886.79 62.92 886.79 62.46 887.14 62.69"/><polygon class="cls-3" points="911.34 64.12 909.11 62.69 911.34 61.26 911.34 64.12"/><polygon class="cls-3" points="926.23 62.69 920.55 66.32 920.55 59.06 926.23 62.69"/><polygon class="cls-3" points="928.78 52.1 927.54 51.31 928.78 50.52 928.78 52.1"/><polygon class="cls-3" points="949.14 68.46 940.12 62.69 949.14 56.92 949.14 68.46"/><polygon class="cls-3" points="941.63 51.31 939.5 52.67 939.5 49.95 941.63 51.31"/><polygon class="cls-3" points="964.25 74.75 963.2 74.07 964.25 73.39 964.25 74.75"/><polygon class="cls-3" points="963.89 62.69 955.02 68.36 955.02 57.01 963.89 62.69"/><polygon class="cls-3" points="978.99 74.07 974.12 77.19 974.12 70.95 978.99 74.07"/><polygon class="cls-3" points="966.55 56.41 958.6 51.31 966.55 46.22 966.55 56.41"/><polygon class="cls-3" points="985.75 70.54 973.5 62.69 985.75 54.84 985.75 70.54"/><polygon class="cls-3" points="981.05 51.31 973.09 56.41 973.09 46.22 981.05 51.31"/><polygon class="cls-3" points="1001.1 77.27 996.1 74.07 1001.1 70.86 1001.1 77.27"/><polygon class="cls-3" points="1001.69 62.69 989.43 70.54 989.43 54.84 1001.69 62.69"/><polygon class="cls-3" points="981.67 39.94 981.67 39.93 981.67 39.93 981.67 39.94"/><polygon class="cls-3" points="1015.25 74.07 1009.3 77.88 1009.3 70.26 1015.25 74.07"/><polygon class="cls-3" points="1002.8 57.78 992.7 51.31 1002.8 44.84 1002.8 57.78"/><polygon class="cls-3" points="1021.29 70.54 1009.03 62.69 1021.29 54.84 1021.29 70.54"/><polygon class="cls-3" points="1019.45 51.31 1007.19 59.16 1007.19 43.46 1019.45 51.31"/><polygon class="cls-3" points="1035.83 75.71 1033.26 74.07 1035.83 72.43 1035.83 75.71"/><polygon class="cls-3" points="1037.22 62.69 1024.96 70.54 1024.96 54.84 1037.22 62.69"/><polygon class="cls-3" points="1018.06 41.58 1015.49 39.93 1018.06 38.29 1018.06 41.58"/><polygon class="cls-3" points="1000.29 7.44 997.73 5.8 1000.29 4.16 1000.29 7.44"/><polygon class="cls-3" points="1070.95 120.43 1069.62 119.58 1070.95 118.73 1070.95 120.43"/><polygon class="cls-3" points="1064.96 108.2 1064.39 108.56 1064.39 107.84 1064.96 108.2"/><polygon class="cls-3" points="1048.83 74.07 1045.81 76 1045.81 72.14 1048.83 74.07"/><polygon class="cls-3" points="1039.06 59.16 1026.8 51.31 1039.06 43.46 1039.06 59.16"/><polygon class="cls-3" points="1031.29 39.93 1027.92 42.09 1027.92 37.78 1031.29 39.93"/><polygon class="cls-3" points="1012.23 5.8 1010.81 6.71 1010.81 4.89 1012.23 5.8"/><polygon class="cls-3" points="1056.83 70.54 1044.57 62.69 1056.83 54.84 1056.83 70.54"/><polygon class="cls-3" points="1054.99 51.31 1042.73 59.16 1042.73 43.46 1054.99 51.31"/><polygon class="cls-3" points="1072.49 77.88 1066.54 74.07 1072.49 70.26 1072.49 77.88"/><polygon class="cls-3" points="1072.76 62.69 1060.5 70.54 1060.5 54.84 1072.76 62.69"/><polygon class="cls-3" points="1055.05 44.37 1048.12 39.93 1055.05 35.49 1055.05 44.37"/><polygon class="cls-3" points="1035.98 7.73 1032.96 5.8 1035.98 3.87 1035.98 7.73"/><polygon class="cls-3" points="1084.92 74.07 1081.07 76.53 1081.07 71.6 1084.92 74.07"/><polygon class="cls-3" points="1074.59 59.16 1062.33 51.31 1074.59 43.46 1074.59 59.16"/><polygon class="cls-3" points="1069.2 39.93 1062.27 44.37 1062.27 35.49 1069.2 39.93"/><polygon class="cls-3" points="1051.44 5.8 1044.51 10.24 1044.51 1.36 1051.44 5.8"/><polygon class="cls-3" points="1100.2 85.44 1100.08 85.52 1100.08 85.37 1100.2 85.44"/><polygon class="cls-3" points="1092.36 70.54 1080.1 62.69 1092.36 54.84 1092.36 70.54"/><polygon class="cls-3" points="1090.52 51.31 1078.26 59.16 1078.26 43.46 1090.52 51.31"/><polygon class="cls-3" points="1107.66 77.19 1102.79 74.07 1107.66 70.95 1107.66 77.19"/><polygon class="cls-3" points="1108.29 62.69 1096.03 70.54 1096.03 54.84 1108.29 62.69"/><polygon class="cls-3" points="1091.48 46.1 1081.85 39.93 1091.48 33.76 1091.48 46.1"/><polygon class="cls-3" points="1072.58 9.79 1066.36 5.8 1072.58 1.81 1072.58 9.79"/><polygon class="cls-3" points="1141.6 119.63 1141.53 119.58 1141.6 119.53 1141.6 119.63"/><polygon class="cls-3" points="1123.9 85.63 1123.62 85.44 1123.9 85.26 1123.9 85.63"/><polygon class="cls-3" points="1120.37 74.07 1116.64 76.46 1116.64 71.68 1120.37 74.07"/><polygon class="cls-3" points="1110.13 59.16 1097.87 51.31 1110.13 43.46 1110.13 59.16"/><polygon class="cls-3" points="1107.5 39.93 1096.43 47.02 1096.43 32.84 1107.5 39.93"/><polygon class="cls-3" points="1085.42 5.8 1080.81 8.75 1080.81 2.85 1085.42 5.8"/><polygon class="cls-3" points="1154.63 119.58 1152.81 120.75 1152.81 118.42 1154.63 119.58"/><polygon class="cls-3" points="1142.15 97.92 1140.43 96.82 1142.15 95.72 1142.15 97.92"/><polygon class="cls-3" points="1137.21 85.44 1134.87 86.95 1134.87 83.94 1137.21 85.44"/><polygon class="cls-3" points="1127.89 70.54 1115.63 62.69 1127.89 54.84 1127.89 70.54"/><polygon class="cls-3" points="1126.06 51.31 1113.8 59.16 1113.8 43.46 1126.06 51.31"/><polygon class="cls-3" points="1107.09 30.56 1103.95 28.55 1107.09 26.55 1107.09 30.56"/><polygon class="cls-3" points="1100.5 17.18 1099.93 17.54 1099.93 16.81 1100.5 17.18"/><polygon class="cls-3" points="1154.43 96.82 1152.91 97.8 1152.91 95.85 1154.43 96.82"/><polygon class="cls-3" points="1143.74 78.23 1137.24 74.07 1143.74 69.9 1143.74 78.23"/><polygon class="cls-3" points="1143.83 62.69 1131.57 70.54 1131.57 54.84 1143.83 62.69"/><polygon class="cls-3" points="1127.89 47.78 1115.63 39.93 1127.89 32.08 1127.89 47.78"/><polygon class="cls-3" points="1121.22 28.55 1116.22 31.76 1116.22 25.35 1121.22 28.55"/><polygon class="cls-3" points="1107.93 9.43 1102.26 5.8 1107.93 2.17 1107.93 9.43"/><polygon class="cls-3" points="1178.69 122.62 1173.95 119.58 1178.69 116.54 1178.69 122.62"/><polygon class="cls-3" points="1172.08 108.2 1170.74 109.05 1170.74 107.35 1172.08 108.2"/><polygon class="cls-3" points="1160.39 87.45 1157.25 85.44 1160.39 83.44 1160.39 87.45"/><polygon class="cls-3" points="1158.04 74.07 1151.11 78.51 1151.11 69.63 1158.04 74.07"/><polygon class="cls-3" points="1145.66 59.16 1133.4 51.31 1145.66 43.46 1145.66 59.16"/><polygon class="cls-3" points="1143.83 39.93 1131.57 47.78 1131.57 32.08 1143.83 39.93"/><polygon class="cls-3" points="1124.7 18.89 1122.02 17.18 1124.7 15.46 1124.7 18.89"/><polygon class="cls-3" points="1119.1 5.8 1117.28 6.96 1117.28 4.63 1119.1 5.8"/><polygon class="cls-3" points="1173.05 85.44 1170.26 87.23 1170.26 83.66 1173.05 85.44"/><polygon class="cls-3" points="1163.43 70.54 1151.17 62.69 1163.43 54.84 1163.43 70.54"/><polygon class="cls-3" points="1161.59 51.31 1149.33 59.16 1149.33 43.46 1161.59 51.31"/><polygon class="cls-3" points="1145.32 35.75 1134.09 28.55 1145.32 21.36 1145.32 35.75"/><polygon class="cls-3" points="1139.8 17.18 1133.58 21.16 1133.58 13.19 1139.8 17.18"/><polygon class="cls-3" points="1180.69 80.95 1169.95 74.07 1180.69 67.19 1180.69 80.95"/><polygon class="cls-3" points="1179.36 62.69 1167.1 70.54 1167.1 54.84 1179.36 62.69"/><polygon class="cls-3" points="1163.43 47.78 1151.17 39.93 1163.43 32.08 1163.43 47.78"/><polygon class="cls-3" points="1161.13 28.55 1149.57 35.96 1149.57 21.15 1161.13 28.55"/><polygon class="cls-3" points="1142.36 7.3 1140.01 5.8 1142.36 4.3 1142.36 7.3"/><polygon class="cls-3" points="1181.2 59.16 1168.94 51.31 1181.2 43.46 1181.2 59.16"/><polygon class="cls-3" points="1179.36 39.93 1167.1 47.78 1167.1 32.08 1179.36 39.93"/><polygon class="cls-3" points="1162.4 23.05 1153.23 17.18 1162.4 11.3 1162.4 23.05"/><polygon class="cls-3" points="1158.14 5.8 1151.06 10.33 1151.06 1.27 1158.14 5.8"/><polygon class="cls-3" points="1179.91 33.94 1171.51 28.55 1179.91 23.17 1179.91 33.94"/><polygon class="cls-3" points="1176.39 17.18 1168.59 22.18 1168.59 12.18 1176.39 17.18"/><polygon class="cls-3" points="1180.91 13.1 1169.51 5.8 1180.91 -1.5 1180.91 13.1"/><polygon class="cls-3" points="302.22 36.53 302.6 36.3 302.6 36.75 302.22 36.53"/><polygon class="cls-3" points="276.81 35.09 279.16 36.53 276.81 37.96 276.81 35.09"/><polygon class="cls-3" points="261.18 36.53 267.14 32.89 267.14 40.16 261.18 36.53"/><polygon class="cls-3" points="258.5 47.11 259.8 47.9 258.5 48.7 258.5 47.11"/><polygon class="cls-3" points="237.11 30.75 246.58 36.53 237.11 42.3 237.11 30.75"/><polygon class="cls-3" points="245 47.9 247.24 46.54 247.24 49.27 245 47.9"/><polygon class="cls-3" points="221.24 24.47 222.35 25.15 221.24 25.82 221.24 24.47"/><polygon class="cls-3" points="221.63 36.53 230.93 30.85 230.93 42.2 221.63 36.53"/><polygon class="cls-3" points="205.76 25.15 210.88 22.03 210.88 28.27 205.76 25.15"/><polygon class="cls-3" points="218.82 42.81 227.18 47.9 218.82 53 218.82 42.81"/><polygon class="cls-3" points="198.66 28.68 211.53 36.53 198.66 44.38 198.66 28.68"/><polygon class="cls-3" points="203.6 47.9 211.96 42.81 211.96 53 203.6 47.9"/><polygon class="cls-3" points="182.54 21.94 187.79 25.15 182.54 28.35 182.54 21.94"/><polygon class="cls-3" points="181.93 36.53 194.8 28.68 194.8 44.38 181.93 36.53"/><polygon class="cls-3" points="202.95 59.28 202.95 59.28 202.95 59.28 202.95 59.28"/><polygon class="cls-3" points="167.68 25.15 173.93 21.34 173.93 28.96 167.68 25.15"/><polygon class="cls-3" points="180.75 41.43 191.37 47.9 180.75 54.38 180.75 41.43"/><polygon class="cls-3" points="161.34 28.68 174.21 36.53 161.34 44.38 161.34 28.68"/><polygon class="cls-3" points="163.26 47.9 176.14 40.05 176.14 55.76 163.26 47.9"/><polygon class="cls-3" points="146.07 23.51 148.76 25.15 146.07 26.79 146.07 23.51"/><polygon class="cls-3" points="144.6 36.53 157.48 28.68 157.48 44.38 144.6 36.53"/><polygon class="cls-3" points="164.73 57.64 167.42 59.28 164.73 60.92 164.73 57.64"/><polygon class="cls-3" points="183.39 91.78 186.08 93.42 183.39 95.06 183.39 91.78"/><polygon class="cls-3" points="132.42 25.15 135.58 23.22 135.58 27.08 132.42 25.15"/><polygon class="cls-3" points="142.68 40.05 155.55 47.9 142.68 55.76 142.68 40.05"/><polygon class="cls-3" points="150.83 59.28 154.37 57.13 154.37 61.44 150.83 59.28"/><polygon class="cls-3" points="170.85 93.42 172.35 92.5 172.35 94.33 170.85 93.42"/><polygon class="cls-3" points="124.02 28.68 136.89 36.53 124.02 44.38 124.02 28.68"/><polygon class="cls-3" points="125.94 47.9 138.82 40.05 138.82 55.76 125.94 47.9"/><polygon class="cls-3" points="107.56 21.34 113.81 25.15 107.56 28.96 107.56 21.34"/><polygon class="cls-3" points="107.28 36.53 120.16 28.68 120.16 44.38 107.28 36.53"/><polygon class="cls-3" points="125.88 54.84 133.16 59.28 125.88 63.72 125.88 54.84"/><polygon class="cls-3" points="145.91 91.48 149.08 93.42 145.91 95.35 145.91 91.48"/><polygon class="cls-3" points="94.51 25.15 98.56 22.68 98.56 27.62 94.51 25.15"/><polygon class="cls-3" points="105.36 40.05 118.23 47.9 105.36 55.76 105.36 40.05"/><polygon class="cls-3" points="111.01 59.28 118.3 54.84 118.3 63.72 111.01 59.28"/><polygon class="cls-3" points="129.67 93.42 136.96 88.98 136.96 97.86 129.67 93.42"/><polygon class="cls-3" points="78.46 13.77 78.59 13.69 78.59 13.85 78.46 13.77"/><polygon class="cls-3" points="86.69 28.68 99.57 36.53 86.69 44.38 86.69 28.68"/><polygon class="cls-3" points="88.62 47.9 101.5 40.05 101.5 55.76 88.62 47.9"/><polygon class="cls-3" points="70.62 22.03 75.74 25.15 70.62 28.27 70.62 22.03"/><polygon class="cls-3" points="69.96 36.53 82.84 28.68 82.84 44.38 69.96 36.53"/><polygon class="cls-3" points="87.61 53.11 97.73 59.28 87.61 65.45 87.61 53.11"/><polygon class="cls-3" points="107.47 89.43 114.01 93.42 107.47 97.4 107.47 89.43"/><polygon class="cls-3" points="53.56 13.58 53.87 13.77 53.56 13.96 53.56 13.58"/><polygon class="cls-3" points="57.27 25.15 61.19 22.76 61.19 27.54 57.27 25.15"/><polygon class="cls-3" points="68.03 40.05 80.91 47.9 68.03 55.76 68.03 40.05"/><polygon class="cls-3" points="70.8 59.28 82.42 52.19 82.42 66.37 70.8 59.28"/><polygon class="cls-3" points="93.98 93.42 98.82 90.46 98.82 96.37 93.98 93.42"/><polygon class="cls-3" points="34.4 1.29 36.21 2.39 34.4 3.49 34.4 1.29"/><polygon class="cls-3" points="39.58 13.77 42.05 12.27 42.05 15.27 39.58 13.77"/><polygon class="cls-3" points="49.37 28.68 62.25 36.53 49.37 44.38 49.37 28.68"/><polygon class="cls-3" points="51.3 47.9 64.18 40.05 64.18 55.76 51.3 47.9"/><polygon class="cls-3" points="71.23 68.65 74.52 70.66 71.23 72.67 71.23 68.65"/><polygon class="cls-3" points="78.15 82.04 78.75 81.67 78.75 82.4 78.15 82.04"/><polygon class="cls-3" points="21.5 2.39 23.1 1.42 23.1 3.37 21.5 2.39"/><polygon class="cls-3" points="32.73 20.98 39.56 25.15 32.73 29.31 32.73 20.98"/><polygon class="cls-3" points="32.64 36.53 45.52 28.68 45.52 44.38 32.64 36.53"/><polygon class="cls-3" points="49.37 51.43 62.25 59.28 49.37 67.13 49.37 51.43"/><polygon class="cls-3" points="56.38 70.66 61.64 67.46 61.64 73.86 56.38 70.66"/><polygon class="cls-3" points="70.34 89.78 76.3 93.42 70.34 97.05 70.34 89.78"/><polygon class="cls-3" points="15.25 11.76 18.54 13.77 15.25 15.78 15.25 11.76"/><polygon class="cls-3" points="17.71 25.15 24.99 20.71 24.99 29.59 17.71 25.15"/><polygon class="cls-3" points="30.71 40.05 43.59 47.9 30.71 55.76 30.71 40.05"/><polygon class="cls-3" points="32.64 59.28 45.52 51.43 45.52 67.13 32.64 59.28"/><polygon class="cls-3" points="52.73 80.33 55.54 82.04 52.73 83.75 52.73 80.33"/><polygon class="cls-3" points="58.61 93.42 60.52 92.25 60.52 94.58 58.61 93.42"/><polygon class="cls-3" points="1.95 13.77 4.88 11.98 4.88 15.55 1.95 13.77"/><polygon class="cls-3" points="12.05 28.68 24.93 36.53 12.05 44.38 12.05 28.68"/><polygon class="cls-3" points="13.98 47.9 26.86 40.05 26.86 55.76 13.98 47.9"/><polygon class="cls-3" points="31.07 63.47 42.87 70.66 31.07 77.85 31.07 63.47"/><polygon class="cls-3" points="36.87 82.04 43.41 78.05 43.41 86.03 36.87 82.04"/><polygon class="cls-3" points="-6.08 18.27 5.21 25.15 -6.08 32.03 -6.08 18.27"/><polygon class="cls-3" points="-4.68 36.53 8.2 28.68 8.2 44.38 -4.68 36.53"/><polygon class="cls-3" points="12.05 51.43 24.93 59.28 12.05 67.13 12.05 51.43"/><polygon class="cls-3" points="14.47 70.66 26.61 63.26 26.61 78.06 14.47 70.66"/><polygon class="cls-3" points="34.19 91.92 36.65 93.42 34.19 94.92 34.19 91.92"/><polygon class="cls-3" points="-6.61 40.05 6.27 47.9 -6.61 55.76 -6.61 40.05"/><polygon class="cls-3" points="-4.68 59.28 8.2 51.43 8.2 67.13 -4.68 59.28"/><polygon class="cls-3" points="13.13 76.17 22.77 82.04 13.13 87.91 13.13 76.17"/><polygon class="cls-3" points="17.61 93.42 25.04 88.88 25.04 97.95 17.61 93.42"/><polygon class="cls-3" points="-5.26 65.28 3.57 70.66 -5.26 76.04 -5.26 65.28"/><polygon class="cls-3" points="-1.56 82.04 6.64 77.04 6.64 87.04 -1.56 82.04"/><polygon class="cls-3" points="-6.3 86.12 5.66 93.42 -6.3 100.71 -6.3 86.12"/></g></svg>