<svg width="18" height="18" viewBox="0 0 18 18" fill="none" xmlns="http://www.w3.org/2000/svg">
<path d="M9.19324 0.000144145C4.07106 -0.0275085 0.0213118 3.92683 7.55636e-05 8.97663C-0.0200988 13.9201 4.00204 17.9786 8.94159 17.9999C13.9119 18.0212 17.9765 14.0232 17.9999 9.09256C18.0233 4.12252 14.0563 0.0267333 9.19324 0.000144145ZM13.1973 7.8099C12.5475 7.78969 12.3128 8.01198 12.2704 8.71074C12.2173 9.5935 12.3351 10.4826 12.179 11.3611C12.1546 11.4994 12.1345 11.643 12.0824 11.7717C11.904 12.2141 11.6152 12.2769 11.2701 11.9408C10.9187 11.6004 10.7456 11.1495 10.5672 10.7071C10.1053 9.55734 9.82077 8.35126 9.47462 7.16432C9.42365 6.98883 9.43214 6.76973 9.16881 6.60914C9.30473 7.56528 9.43639 8.46612 9.56168 9.36802C9.65725 10.0508 9.76661 10.7336 9.71989 11.4281C9.70078 11.71 9.6891 12.0333 9.35782 12.1237C9.03609 12.2109 8.83434 11.9738 8.67189 11.7302C8.15691 10.9559 7.91269 10.0636 7.58459 9.20743C7.45505 8.86921 7.36161 8.51079 7.06855 8.23533C7.1535 8.91069 7.25012 9.58499 7.3202 10.2625C7.35843 10.6315 7.38072 11.0059 7.35843 11.3739C7.34144 11.6632 7.34887 12.0354 6.98679 12.1227C6.59286 12.2184 6.42297 11.8876 6.29662 11.5941C6.10974 11.1559 5.95471 10.7049 5.78695 10.2593C5.70412 10.0359 5.62237 9.81153 5.43867 9.61796C5.51725 10.1933 5.61599 10.7666 5.66802 11.3431C5.73492 12.0727 5.52362 12.2567 4.82388 12.145C4.71664 12.128 4.6094 12.1365 4.60727 11.9823C4.60515 11.8387 4.64868 11.7291 4.81114 11.743C5.22737 11.7781 5.21888 11.5164 5.18171 11.2303C5.10951 10.6688 5.02987 10.1083 4.96935 9.54564C4.94812 9.35526 4.9598 9.15637 4.9874 8.96493C5.0097 8.81178 5.04368 8.63416 5.23056 8.5863C5.43124 8.53312 5.57034 8.65543 5.67864 8.80008C5.99081 9.21487 6.15858 9.70092 6.33166 10.1827C6.43677 10.4741 6.55251 10.7613 6.76912 11.0176C6.63852 10.0742 6.50473 9.13191 6.37944 8.18853C6.32635 7.78544 6.29131 7.37916 6.40598 6.97713C6.53446 6.5315 6.79673 6.44747 7.1312 6.76654C7.51239 7.13028 7.69396 7.62059 7.89252 8.09068C8.16009 8.72457 8.38838 9.3744 8.63685 10.0168C8.67826 10.1232 8.6772 10.2678 8.88319 10.2986C8.87257 9.38504 8.61667 8.5193 8.50518 7.63548C8.42767 7.02074 8.33105 6.40919 8.26097 5.79445C8.22593 5.47963 8.21318 5.15843 8.28751 4.84362C8.34803 4.58836 8.36715 4.29056 8.70162 4.23526C9.02653 4.18208 9.23146 4.38416 9.39604 4.62878C9.69335 5.07335 9.87386 5.57322 10.0406 6.07629C10.3676 7.06541 10.6766 8.0609 11.0057 9.05002C11.0737 9.25422 11.0939 9.48927 11.3179 9.72113C11.3179 9.16701 11.3031 8.69691 11.3232 8.22682C11.3423 7.75991 11.4517 7.30896 11.817 6.97819C12.3681 6.48044 12.952 6.64955 13.123 7.35044C13.1591 7.5004 13.26 7.64292 13.1973 7.8099Z" fill="#5F5C5C"/>
</svg>
