<svg width="18" height="18" viewBox="0 0 18 18" fill="none" xmlns="http://www.w3.org/2000/svg">
<path d="M11.1808 10.01C11.5007 9.6011 11.6993 9.11044 11.7539 8.59405C11.8085 8.07765 11.7168 7.5563 11.4895 7.08949C11.2621 6.62267 10.9081 6.22918 10.468 5.95392C10.0278 5.67865 9.51911 5.53269 9 5.53269C8.48088 5.53269 7.97222 5.67865 7.53204 5.95392C7.09186 6.22918 6.7379 6.62267 6.51053 7.08949C6.28315 7.5563 6.19153 8.07765 6.24612 8.59405C6.3007 9.11044 6.49929 9.6011 6.81923 10.01C6.62496 10.1233 6.45451 10.2733 6.31731 10.4515C6.12184 10.6885 5.98159 10.9661 5.90675 11.264C5.83191 11.562 5.82434 11.8729 5.88461 12.1742L6.71538 16.3293C6.80932 16.7999 7.06322 17.2234 7.43393 17.5279C7.80465 17.8325 8.26932 17.9993 8.74903 18H9.25096C9.73067 17.9993 10.1953 17.8325 10.5661 17.5279C10.9368 17.2234 11.1907 16.7999 11.2846 16.3293L12.1154 12.1742C12.1756 11.8729 12.1681 11.562 12.0932 11.264C12.0184 10.9661 11.8782 10.6885 11.6827 10.4515C11.5455 10.2733 11.375 10.1233 11.1808 10.01ZM9 6.91965C9.27385 6.91965 9.54155 7.00088 9.76925 7.15307C9.99695 7.30526 10.1744 7.52157 10.2792 7.77466C10.384 8.02774 10.4114 8.30623 10.358 8.5749C10.3046 8.84357 10.1727 9.09036 9.97907 9.28406C9.78543 9.47777 9.53871 9.60968 9.27012 9.66312C9.00153 9.71656 8.72313 9.68914 8.47013 9.5843C8.21712 9.47947 8.00087 9.30195 7.84873 9.07418C7.69659 8.84641 7.61538 8.57863 7.61538 8.30469C7.61538 7.93735 7.76126 7.58506 8.02093 7.32532C8.28059 7.06557 8.63277 6.91965 9 6.91965ZM10.7567 11.9058L9.92596 16.0609C9.89569 16.2175 9.81165 16.3586 9.68839 16.4598C9.56513 16.5609 9.4104 16.6158 9.25096 16.615H8.74903C8.58959 16.6158 8.43486 16.5609 8.3116 16.4598C8.18834 16.3586 8.10431 16.2175 8.07404 16.0609L7.24327 11.9058C7.22231 11.8049 7.22386 11.7006 7.24779 11.6004C7.27172 11.5001 7.31745 11.4064 7.38173 11.3258C7.44817 11.2482 7.5304 11.1857 7.62292 11.1424C7.71544 11.0991 7.81613 11.0761 7.91827 11.0748H10.0817C10.1839 11.0761 10.2845 11.0991 10.3771 11.1424C10.4696 11.1857 10.5518 11.2482 10.6183 11.3258C10.6825 11.4064 10.7283 11.5001 10.7522 11.6004C10.7761 11.7006 10.7777 11.8049 10.7567 11.9058ZM13.8461 8.99721C13.8459 8.28504 13.6887 7.58168 13.3859 6.93715C13.083 6.29262 12.6419 5.72275 12.094 5.26808C11.546 4.8134 10.9046 4.48508 10.2154 4.30647C9.52619 4.12786 8.80612 4.10335 8.10637 4.23467C7.40663 4.366 6.74441 4.64993 6.1668 5.06629C5.58919 5.48264 5.11039 6.02119 4.76444 6.64363C4.41849 7.26608 4.21389 7.95712 4.16519 8.66763C4.1165 9.37813 4.2249 10.0906 4.48269 10.7545C4.54754 10.9256 4.54208 11.1154 4.46749 11.2824C4.3929 11.4495 4.25526 11.5802 4.08461 11.6461C4.00546 11.6806 3.92 11.6983 3.83365 11.698C3.69499 11.6971 3.55981 11.6545 3.44563 11.5758C3.33145 11.497 3.24353 11.3858 3.19327 11.2566C2.90971 10.5372 2.7658 9.77044 2.76923 8.99721C2.76923 7.3442 3.42568 5.75889 4.59418 4.59003C5.76267 3.42117 7.34749 2.76451 9 2.76451C10.6525 2.76451 12.2373 3.42117 13.4058 4.59003C14.5743 5.75889 15.2308 7.3442 15.2308 8.99721C15.2334 9.77036 15.0895 10.537 14.8067 11.2566C14.7356 11.4211 14.6035 11.5516 14.4381 11.6207C14.2728 11.6898 14.0871 11.692 13.9202 11.627C13.7532 11.562 13.6179 11.4348 13.5428 11.272C13.4677 11.1093 13.4585 10.9238 13.5173 10.7545C13.7345 10.1941 13.846 9.59826 13.8461 8.99721ZM18 8.99721C18.0017 10.51 17.622 11.9987 16.8959 13.3257C16.1699 14.6527 15.1209 15.7751 13.8461 16.589C13.7331 16.655 13.6049 16.6908 13.474 16.6929C13.3246 16.6934 13.1791 16.6456 13.0591 16.5566C12.9391 16.4675 12.8512 16.3421 12.8083 16.1989C12.7655 16.0558 12.7701 15.9026 12.8214 15.7623C12.8728 15.622 12.9682 15.502 13.0933 15.4204C14.4828 14.5344 15.5476 13.2215 16.1278 11.6787C16.7079 10.1359 16.7722 8.44648 16.3109 6.86405C15.8496 5.28163 14.8876 3.89157 13.5694 2.90253C12.2512 1.91349 10.6478 1.37885 9 1.37885C7.35218 1.37885 5.74881 1.91349 4.43059 2.90253C3.11236 3.89157 2.1504 5.28163 1.6891 6.86405C1.22781 8.44648 1.29207 10.1359 1.87224 11.6787C2.45241 13.2215 3.51718 14.5344 4.90673 15.4204C5.06165 15.5202 5.17057 15.6776 5.20952 15.8578C5.24847 16.038 5.21426 16.2263 5.11442 16.3812C5.01458 16.5362 4.85729 16.6452 4.67715 16.6841C4.497 16.7231 4.30877 16.6889 4.15384 16.589C2.83727 15.7474 1.76239 14.5775 1.03495 13.1943C0.307518 11.8111 -0.0474118 10.2623 0.00508199 8.70031C0.0575758 7.13829 0.515684 5.61684 1.33434 4.28565C2.15299 2.95445 3.30399 1.85938 4.6741 1.10816C6.0442 0.356938 7.58621 -0.0245503 9.14842 0.00122462C10.7106 0.0269995 12.2392 0.45915 13.5838 1.25516C14.9284 2.05117 16.0427 3.18362 16.817 4.54109C17.5913 5.89857 17.999 7.4343 18 8.99721Z" fill="#5F5C5C"/>
</svg>
