<svg width="18" height="18" viewBox="0 0 18 18" fill="none" xmlns="http://www.w3.org/2000/svg">
<path d="M14.112 4.698V5.958C14.112 6.57 13.617 7.074 12.987 7.074C12.366 7.074 11.862 6.57 11.862 5.958V4.698C11.862 4.39963 11.9805 4.11348 12.1915 3.9025C12.4025 3.69153 12.6886 3.573 12.987 3.573C13.617 3.573 14.112 4.077 14.112 4.698ZM10.125 5.724V12.267C10.125 12.5654 10.0065 12.8515 9.7955 13.0625C9.58452 13.2735 9.29837 13.392 9 13.392C8.70163 13.392 8.41548 13.2735 8.2045 13.0625C7.99353 12.8515 7.875 12.5654 7.875 12.267V5.724C7.875 5.112 8.379 4.599 9 4.599C9.621 4.599 10.125 5.112 10.125 5.724ZM18 8.37V9.63C18 10.242 17.496 10.746 16.875 10.746C16.254 10.746 15.75 10.242 15.75 9.63V8.37C15.75 7.749 16.254 7.254 16.875 7.254C17.496 7.254 18 7.749 18 8.37ZM2.25 8.37V9.63C2.25 10.242 1.746 10.746 1.125 10.746C0.495 10.746 0 10.242 0 9.63V8.37C0 7.749 0.495 7.254 1.125 7.254C1.746 7.254 2.25 7.749 2.25 8.37ZM6.138 12.042V13.293C6.138 13.905 5.634 14.4 5.013 14.4C4.392 14.4 3.888 13.905 3.888 13.293V12.042C3.888 11.412 4.392 10.917 5.013 10.917C5.31137 10.917 5.59752 11.0355 5.80849 11.2465C6.01947 11.4575 6.138 11.7436 6.138 12.042ZM10.125 15.624V16.875C10.125 17.1734 10.0065 17.4595 9.7955 17.6705C9.58452 17.8815 9.29837 18 9 18C8.70163 18 8.41548 17.8815 8.2045 17.6705C7.99353 17.4595 7.875 17.1734 7.875 16.875V15.624C7.875 15.3256 7.99353 15.0395 8.2045 14.8285C8.41548 14.6175 8.70163 14.499 9 14.499C9.29837 14.499 9.58452 14.6175 9.7955 14.8285C10.0065 15.0395 10.125 15.3256 10.125 15.624ZM10.125 1.125V2.376C10.125 2.67437 10.0065 2.96052 9.7955 3.17149C9.58452 3.38247 9.29837 3.501 9 3.501C8.70163 3.501 8.41548 3.38247 8.2045 3.17149C7.99353 2.96052 7.875 2.67437 7.875 2.376V1.125C7.875 0.495 8.379 0 9 0C9.29837 0 9.58452 0.118526 9.7955 0.329505C10.0065 0.540483 10.125 0.826631 10.125 1.125ZM14.112 9.306V13.293C14.112 13.914 13.617 14.4 12.987 14.4C12.366 14.4 11.862 13.914 11.862 13.293V9.306C11.862 8.676 12.366 8.181 12.987 8.181C13.617 8.181 14.112 8.676 14.112 9.306ZM6.138 4.698V8.685C6.138 9.315 5.634 9.81 5.013 9.81C4.86526 9.81 4.71897 9.7809 4.58248 9.72436C4.44599 9.66783 4.32197 9.58496 4.2175 9.48049C4.11304 9.37603 4.03017 9.25201 3.97364 9.11552C3.9171 8.97903 3.888 8.83274 3.888 8.685V4.698C3.888 4.39963 4.00653 4.11348 4.2175 3.9025C4.42848 3.69153 4.71463 3.573 5.013 3.573C5.31137 3.573 5.59752 3.69153 5.80849 3.9025C6.01947 4.11348 6.138 4.39963 6.138 4.698Z" fill="#5F5C5C"/>
</svg>
