<svg width="17" height="17" viewBox="0 0 17 17" fill="none" xmlns="http://www.w3.org/2000/svg">
<path d="M3.33136 0C1.49938 0 0 1.49934 0 3.33136V13.6692C0 15.5012 1.49934 17 3.33136 17H13.6692C15.5012 17 17 15.5012 17 13.6692V3.33136C17 1.49938 15.5012 0 13.6692 0H3.33136ZM4.16925 2.80534C5.04765 2.80534 5.58871 3.382 5.60541 4.14C5.60541 4.88127 5.04762 5.47413 4.15226 5.47413H4.13578C3.2741 5.47413 2.71716 4.8813 2.71716 4.14C2.71716 3.38201 3.29096 2.80534 4.16924 2.80534H4.16925ZM11.7389 6.34816C13.4283 6.34816 14.6946 7.45232 14.6946 9.82509V14.2547H12.1273V10.1221C12.1273 9.0836 11.7558 8.37511 10.8267 8.37511C10.1174 8.37511 9.69461 8.85264 9.50899 9.31395C9.44118 9.47899 9.42452 9.70949 9.42452 9.94037V14.2547H6.85719C6.85719 14.2547 6.89088 7.25418 6.85719 6.52932H9.42504V7.62331C9.76621 7.09693 10.3765 6.34814 11.7389 6.34814V6.34816ZM2.86859 6.52988H5.43592V14.2547H2.86859V6.52988Z" fill="#5F5C5C"/>
</svg>
