<svg width="18" height="18" viewBox="0 0 18 18" fill="none" xmlns="http://www.w3.org/2000/svg">
<path d="M8.99625 0C4.03575 0 0 4.0365 0 8.997C0 13.962 4.03575 18 8.99625 18C13.9612 18 18 13.9613 18 8.997C18 4.0365 13.9612 0 8.99625 0ZM4.431 12.303C5.46107 11.9875 6.53219 11.8262 7.6095 11.8245C9.42 11.8245 11.2072 12.2835 12.7785 13.152C12.8722 13.203 12.957 13.371 12.996 13.581C13.0335 13.791 13.0185 14.0062 12.957 14.118C12.928 14.1712 12.8888 14.218 12.8415 14.2559C12.7943 14.2938 12.74 14.3219 12.6818 14.3386C12.6237 14.3554 12.5627 14.3604 12.5026 14.3534C12.4425 14.3465 12.3843 14.3276 12.3315 14.298C11.1774 13.6649 9.9079 13.27 8.5983 13.1368C7.28871 13.0036 5.96569 13.1347 4.70775 13.5225C4.65 13.5412 4.58911 13.5482 4.52864 13.5431C4.46816 13.538 4.40929 13.5209 4.35548 13.4929C4.30166 13.4648 4.25397 13.4263 4.21517 13.3796C4.17637 13.333 4.14725 13.279 4.1295 13.221C4.04925 12.9585 4.215 12.3735 4.431 12.303ZM4.03875 8.988C5.20241 8.67186 6.40291 8.51171 7.60875 8.51175C9.77925 8.51175 11.934 9.03675 13.8412 10.0312C13.9755 10.0987 14.0737 10.2142 14.1187 10.3553C14.1415 10.4265 14.1498 10.5015 14.1431 10.5759C14.1364 10.6504 14.1148 10.7227 14.0798 10.7887C13.9095 11.1217 13.71 11.346 13.5848 11.346C13.4934 11.3456 13.4034 11.3235 13.3222 11.2815C11.5592 10.361 9.59841 9.88377 7.6095 9.891C6.5032 9.88878 5.40169 10.0364 4.335 10.3298C4.26384 10.3492 4.18954 10.3544 4.11636 10.3452C4.04317 10.3359 3.97252 10.3123 3.90845 10.2758C3.84438 10.2392 3.78813 10.1904 3.74293 10.1321C3.69773 10.0738 3.66445 10.0072 3.645 9.936C3.561 9.6195 3.75375 9.066 4.03875 8.988ZM3.9375 6.8235C3.85308 6.84517 3.76521 6.8499 3.67895 6.83742C3.5927 6.82495 3.50977 6.79551 3.43495 6.75082C3.36013 6.70612 3.2949 6.64705 3.24303 6.57701C3.19117 6.50697 3.15368 6.42735 3.13275 6.34275C3.0405 5.96925 3.27375 5.53575 3.61275 5.45025C4.92038 5.12818 6.26204 4.96475 7.60875 4.9635C10.1962 4.9635 12.6757 5.5455 14.9767 6.69375C15.1348 6.77236 15.2553 6.91053 15.3115 7.0779C15.3678 7.24525 15.3553 7.4281 15.2767 7.58625C15.1695 7.80225 14.937 8.03475 14.6805 8.03475C14.5799 8.03438 14.4806 8.01211 14.3895 7.9695C12.2854 6.91398 9.96272 6.36779 7.60875 6.375C6.3825 6.375 5.14725 6.52575 3.9375 6.8235Z" fill="#5F5C5C"/>
</svg>
