<svg width="15" height="13" viewBox="0 0 15 13" fill="none"
    xmlns="http://www.w3.org/2000/svg">
    <path d="M13.8643 6.39757L7.83057 0.368274C7.78712 0.324745 7.73552 0.290211 7.67871 0.266648C7.62191 0.243085 7.56101 0.230957 7.49951 0.230957C7.43801 0.230957 7.37712 0.243085 7.32031 0.266648C7.2635 0.290211 7.2119 0.324745 7.16846 0.368274L1.13477 6.39757C0.958984 6.57335 0.859375 6.81212 0.859375 7.06114C0.859375 7.57823 1.27979 7.99864 1.79687 7.99864H2.43262V12.3009C2.43262 12.5602 2.64209 12.7696 2.90137 12.7696H6.56201V9.48839H8.20264V12.7696H12.0977C12.3569 12.7696 12.5664 12.5602 12.5664 12.3009V7.99864H13.2021C13.4512 7.99864 13.6899 7.9005 13.8657 7.72325C14.2305 7.35704 14.2305 6.76378 13.8643 6.39757Z" fill="black"/>
</svg>