<svg width="17" height="15" viewBox="0 0 17 15" fill="none"
    xmlns="http://www.w3.org/2000/svg">
    <path d="M5.52503 10.3125C5.46154 10.3125 5.39806 10.3228 5.3375 10.3444C4.99325 10.4678 4.6312 10.5469 4.25003 10.5469C3.86886 10.5469 3.50682 10.4678 3.1623 10.3444C3.10174 10.3228 3.03852 10.3125 2.97504 10.3125C1.32657 10.3125 -0.00872269 11.7914 4.2911e-05 13.6119C0.00376165 14.3812 0.577245 15 1.27504 15H7.22502C7.92282 15 8.4963 14.3812 8.50002 13.6119C8.50879 11.7914 7.17349 10.3125 5.52503 10.3125ZM4.25003 9.375C5.65837 9.375 6.80003 8.11582 6.80003 6.5625C6.80003 5.00918 5.65837 3.75 4.25003 3.75C2.84169 3.75 1.70004 5.00918 1.70004 6.5625C1.70004 8.11582 2.84169 9.375 4.25003 9.375ZM15.725 0H5.52503C4.82192 0 4.25003 0.651855 4.25003 1.45283V2.8125C4.87212 2.8125 5.448 3.01113 5.95003 3.33398V1.875H15.3V10.3125H13.6V8.4375H10.2V10.3125H8.1749C8.68224 10.8015 9.05465 11.4472 9.22916 12.1875H15.725C16.4281 12.1875 17 11.5356 17 10.7347V1.45283C17 0.651855 16.4281 0 15.725 0Z" fill="black"/>
</svg>