<svg width="13" height="13" viewBox="0 0 13 13" fill="none"
    xmlns="http://www.w3.org/2000/svg">
    <path d="M6.50781 7.75C7.19817 7.75 7.75781 7.19036 7.75781 6.5C7.75781 5.80964 7.19817 5.25 6.50781 5.25C5.81746 5.25 5.25781 5.80964 5.25781 6.5C5.25781 7.19036 5.81746 7.75 6.50781 7.75Z" fill="black"/>
    <path d="M5.88281 12.75H7.13281L7.44531 8.375H5.57031L5.88281 12.75Z" fill="black"/>
    <path d="M6.4984 0.25C4.98087 0.258928 3.51843 0.819684 2.38397 1.82763C1.24951 2.83558 0.520523 4.22185 0.333047 5.72778C0.145572 7.2337 0.512412 8.7564 1.36512 10.0117C2.21782 11.2671 3.49813 12.1693 4.96715 12.55L4.8734 11.225C3.75489 10.8398 2.80918 10.0705 2.20438 9.05378C1.59957 8.03708 1.37484 6.83888 1.57012 5.67212C1.76541 4.50536 2.36806 3.44564 3.27096 2.68129C4.17387 1.91695 5.31854 1.4975 6.50152 1.4975C7.68451 1.4975 8.82918 1.91695 9.73209 2.68129C10.635 3.44564 11.2376 4.50536 11.4329 5.67212C11.6282 6.83888 11.4035 8.03708 10.7987 9.05378C10.1939 10.0705 9.24816 10.8398 8.12965 11.225L8.0359 12.55C9.50541 12.1691 10.7861 11.2664 11.6387 10.0104C12.4914 8.75444 12.8578 7.23105 12.6695 5.72471C12.4812 4.21836 11.7511 2.83204 10.6155 1.82459C9.4799 0.817144 8.01645 0.257444 6.4984 0.25Z" fill="black"/>
    <path d="M8.57546 5.00606C8.66829 5.13857 8.74587 5.28114 8.80671 5.43106C8.87055 5.58197 8.91872 5.73905 8.95046 5.89981C8.98801 6.06382 9.00688 6.23155 9.00671 6.39981C9.00687 6.57012 8.988 6.73993 8.95046 6.90606C8.91872 7.06681 8.87055 7.22389 8.80671 7.37481C8.74587 7.52472 8.66829 7.66729 8.57546 7.79981C8.5079 7.89362 8.43486 7.98336 8.35671 8.06856L8.23796 9.70606C8.36267 9.649 8.48373 9.58429 8.60046 9.51231C9.0058 9.246 9.3542 8.90184 9.62546 8.49981C9.76114 8.30379 9.87633 8.09436 9.96921 7.87481C10.0656 7.64733 10.1389 7.41072 10.188 7.16856C10.2349 6.9151 10.2558 6.65752 10.2505 6.39981C10.2482 6.14567 10.221 5.89238 10.1692 5.64356C10.075 5.16711 9.89039 4.71311 9.62546 4.30606C9.4907 4.10708 9.33798 3.92089 9.16921 3.74981C8.99975 3.57925 8.81338 3.42638 8.61296 3.29356C8.4157 3.15814 8.2065 3.04099 7.98796 2.94356C7.75115 2.85516 7.50622 2.79027 7.25671 2.74981C6.75961 2.6498 6.24757 2.6498 5.75046 2.74981C5.50764 2.79918 5.27085 2.87462 5.04421 2.97481C4.82466 3.06769 4.61523 3.18288 4.41921 3.31856C4.2188 3.45138 4.03242 3.60425 3.86296 3.77481C3.68453 3.93658 3.52135 4.11441 3.37546 4.30606C3.10393 4.7117 2.91297 5.16578 2.81296 5.64356C2.76748 5.89299 2.74655 6.14629 2.75046 6.39981C2.75005 6.65377 2.77517 6.90712 2.82546 7.15606C2.87449 7.39822 2.94778 7.63483 3.04421 7.86231C3.13709 8.08186 3.25228 8.29129 3.38796 8.48731C3.66008 8.8844 4.00337 9.22769 4.40046 9.49981C4.51719 9.57179 4.63826 9.6365 4.76296 9.69356L4.62546 8.06856C4.54732 7.98336 4.47428 7.89362 4.40671 7.79981C4.31388 7.66729 4.23631 7.52472 4.17546 7.37481C4.11163 7.22389 4.06346 7.06681 4.03171 6.90606C4.00251 6.73899 3.99203 6.56919 4.00046 6.39981C3.9982 6.23179 4.01497 6.06405 4.05046 5.89981C4.08221 5.73905 4.13038 5.58197 4.19421 5.43106C4.25506 5.28114 4.33263 5.13857 4.42546 5.00606C4.51682 4.86899 4.62149 4.74128 4.73796 4.62481C4.85073 4.51294 4.97424 4.41246 5.10671 4.32481C5.23923 4.23198 5.3818 4.1544 5.53171 4.09356C5.68244 4.02771 5.83951 3.97745 6.00046 3.94356C6.33297 3.88109 6.67421 3.88109 7.00671 3.94356C7.16767 3.97745 7.32474 4.02771 7.47546 4.09356C7.7752 4.21145 8.04595 4.39266 8.26921 4.62481C8.38526 4.74001 8.48799 4.86789 8.57546 5.00606V5.00606Z" fill="black"/>
</svg>