<svg width="13" height="15" viewBox="0 0 13 15" fill="none"
    xmlns="http://www.w3.org/2000/svg">
    <path d="M4.69843 0.000132713C4.6147 0.0125844 4.53473 0.0433111 4.4642 0.0901327C4.4642 0.0901327 3.7344 0.549363 2.94978 1.04609C2.16516 1.54225 1.29228 2.08917 1.09266 2.19994C1.08035 2.20529 1.06823 2.21106 1.05632 2.21725C0.331703 2.66436 0.181126 3.39475 0.155164 3.80436C0.153433 3.8234 0.155164 3.83898 0.155164 3.85917C0.148818 4.01263 0.155164 4.11129 0.155164 4.11129V11.6476C0.155164 12.7426 1.4319 13.2694 2.64343 13.2694C3.04728 13.2694 3.45113 13.2042 3.79728 13.0888C4.02805 12.9734 4.19363 12.7426 4.19363 12.5119V6.45417C4.19363 5.12725 4.48209 4.50417 5.34747 3.98494C5.57824 3.86956 7.99786 2.19936 7.99786 2.19936C8.11324 2.08398 8.23209 1.84975 8.23209 1.67667V1.62244C8.23209 1.39167 8.1167 1.21513 7.94363 1.09975C7.77055 0.984363 7.53978 0.984363 7.3667 1.09975C7.30901 1.15744 3.78978 3.52686 3.03978 3.93071C2.28978 4.39225 1.58997 4.50359 1.41689 4.27283C1.36324 4.21917 1.31651 4.05475 1.30901 3.89436V3.85802C1.30959 3.70109 1.34997 3.40571 1.66959 3.20898C1.99382 3.0284 2.79863 2.51436 3.58093 2.01936C3.91151 1.80994 3.95247 1.78744 4.21151 1.62244C4.24561 1.76338 4.33153 1.88631 4.45217 1.96676C4.57281 2.04721 4.71933 2.07928 4.86255 2.05658C5.00576 2.03389 5.13518 1.9581 5.22504 1.84429C5.3149 1.73049 5.35861 1.58702 5.34747 1.44244V0.577056C5.34812 0.494824 5.33117 0.413404 5.29778 0.338255C5.26439 0.263106 5.21532 0.195964 5.15385 0.141331C5.09239 0.0866974 5.01996 0.0458348 4.94141 0.0214825C4.86287 -0.00286987 4.78002 -0.0101491 4.69843 0.000132713ZM9.31382 2.01936C9.22208 2.03462 9.13538 2.07183 9.06113 2.12783C9.06113 2.12783 6.15689 4.08186 5.65382 4.41706C5.64772 4.42308 5.64176 4.42923 5.63593 4.43552C5.21824 4.74879 4.97074 5.12148 4.86055 5.46244C4.79881 5.65479 4.76842 5.85582 4.77055 6.05782V6.2384C4.76972 6.25628 4.76972 6.27418 4.77055 6.29206V13.2694C4.77055 14.3655 6.03286 15.0001 7.1867 15.0001C7.70593 15.0001 8.17439 14.8882 8.52055 14.6574C9.21286 14.2536 12.559 11.6471 12.559 11.6471C12.7321 11.5317 12.8475 11.369 12.8475 11.1959V3.6959C12.8475 3.40744 12.7355 3.23436 12.5048 3.11898C12.3317 3.00359 12.0473 3.05783 11.8742 3.17321C10.9511 3.86552 8.46632 5.82013 7.88939 6.16629C7.0817 6.62782 6.32074 6.74321 6.03228 6.45475C5.91689 6.33936 5.92439 6.2309 5.92439 6.05782C5.92786 5.95859 5.93882 5.87321 5.96074 5.80513C5.99305 5.70475 6.05882 5.58129 6.30286 5.3909C6.31439 5.38167 6.30863 5.38225 6.32074 5.37302C6.73786 5.09436 8.01343 4.22494 8.84536 3.65956C8.89249 3.786 8.98245 3.89192 9.0996 3.9589C9.21675 4.02587 9.35367 4.04966 9.48654 4.02614C9.61941 4.00261 9.73984 3.93324 9.82686 3.83011C9.91389 3.72698 9.96201 3.59661 9.96286 3.46167V2.59629C9.9635 2.51405 9.94656 2.43264 9.91317 2.35749C9.87977 2.28234 9.8307 2.2152 9.76924 2.16056C9.70778 2.10593 9.63534 2.06507 9.5568 2.04071C9.47825 2.01636 9.39541 2.00908 9.31382 2.01936ZM11.6936 6.2384V7.39225L8.80901 9.62725V8.4734L11.6936 6.2384Z" fill="black"/>
</svg>