<svg width="13" height="13" viewBox="0 0 13 13" fill="none"
    xmlns="http://www.w3.org/2000/svg">
    <path d="M2.03125 0C1.49253 0 0.975873 0.214006 0.594939 0.594939C0.214006 0.975873 0 1.49253 0 2.03125V9.34375C0 9.88247 0.214006 10.3991 0.594939 10.7801C0.975873 11.161 1.49253 11.375 2.03125 11.375H5.3625C5.22963 11.1153 5.12268 10.8432 5.04319 10.5625H2.03125C1.70802 10.5625 1.39802 10.4341 1.16946 10.2055C0.940903 9.97698 0.8125 9.66698 0.8125 9.34375V2.03125C0.8125 1.70802 0.940903 1.39802 1.16946 1.16946C1.39802 0.940903 1.70802 0.8125 2.03125 0.8125H9.34375C9.66698 0.8125 9.97698 0.940903 10.2055 1.16946C10.4341 1.39802 10.5625 1.70802 10.5625 2.03125V5.04319C10.8461 5.12362 11.1174 5.23006 11.375 5.3625V2.03125C11.375 1.49253 11.161 0.975873 10.7801 0.594939C10.3991 0.214006 9.88247 0 9.34375 0H2.03125ZM5.04319 8.125C5.12362 7.84144 5.23006 7.57006 5.3625 7.3125H2.03125C1.92351 7.3125 1.82017 7.3553 1.74399 7.43149C1.6678 7.50767 1.625 7.61101 1.625 7.71875C1.625 7.82649 1.6678 7.92983 1.74399 8.00601C1.82017 8.0822 1.92351 8.125 2.03125 8.125H5.04319ZM4.46875 9.75C4.57649 9.75 4.67983 9.7072 4.75601 9.63101C4.8322 9.55483 4.875 9.45149 4.875 9.34375C4.875 9.23601 4.8322 9.13267 4.75601 9.05649C4.67983 8.9803 4.57649 8.9375 4.46875 8.9375H2.03125C1.92351 8.9375 1.82017 8.9803 1.74399 9.05649C1.6678 9.13267 1.625 9.23601 1.625 9.34375C1.625 9.45149 1.6678 9.55483 1.74399 9.63101C1.82017 9.7072 1.92351 9.75 2.03125 9.75H4.46875ZM4.0625 1.625C4.1411 1.62499 4.21802 1.64778 4.28393 1.69062C4.34983 1.73345 4.4019 1.79448 4.43381 1.86631L6.05881 5.52256C6.08047 5.57132 6.09232 5.62387 6.09367 5.67721C6.09502 5.73055 6.08585 5.78363 6.06669 5.83343C6.04752 5.88322 6.01874 5.92876 5.98198 5.96743C5.94522 6.0061 5.9012 6.03715 5.85244 6.05881C5.80368 6.08047 5.75113 6.09232 5.69779 6.09367C5.64445 6.09502 5.59137 6.08585 5.54157 6.06669C5.49178 6.04752 5.44624 6.01874 5.40757 5.98198C5.3689 5.94522 5.33785 5.9012 5.31619 5.85244L4.8815 4.875H3.2435L2.80881 5.85244C2.76507 5.95092 2.684 6.02798 2.58343 6.06669C2.48286 6.10539 2.37104 6.10256 2.27256 6.05881C2.17408 6.01507 2.09702 5.934 2.05831 5.83343C2.01961 5.73286 2.02244 5.62104 2.06619 5.52256L3.69119 1.86631C3.7231 1.79448 3.77517 1.73345 3.84107 1.69062C3.90698 1.64778 3.9839 1.62499 4.0625 1.625ZM4.52075 4.0625L4.0625 3.03144L3.60425 4.0625H4.52075ZM8.53125 2.03125C8.53125 1.92351 8.48845 1.82017 8.41226 1.74399C8.33608 1.6678 8.23274 1.625 8.125 1.625C8.01726 1.625 7.91392 1.6678 7.83774 1.74399C7.76155 1.82017 7.71875 1.92351 7.71875 2.03125V2.84375H6.90625C6.79851 2.84375 6.69517 2.88655 6.61899 2.96274C6.5428 3.03892 6.5 3.14226 6.5 3.25C6.5 3.35774 6.5428 3.46108 6.61899 3.53726C6.69517 3.61345 6.79851 3.65625 6.90625 3.65625H7.71875V4.46875C7.71875 4.57649 7.76155 4.67983 7.83774 4.75601C7.91392 4.8322 8.01726 4.875 8.125 4.875C8.23274 4.875 8.33608 4.8322 8.41226 4.75601C8.48845 4.67983 8.53125 4.57649 8.53125 4.46875V3.65625H9.34375C9.45149 3.65625 9.55483 3.61345 9.63101 3.53726C9.7072 3.46108 9.75 3.35774 9.75 3.25C9.75 3.14226 9.7072 3.03892 9.63101 2.96274C9.55483 2.88655 9.45149 2.84375 9.34375 2.84375H8.53125V2.03125ZM13 9.34375C13 10.3134 12.6148 11.2434 11.9291 11.9291C11.2434 12.6148 10.3134 13 9.34375 13C8.37405 13 7.44407 12.6148 6.75839 11.9291C6.07271 11.2434 5.6875 10.3134 5.6875 9.34375C5.6875 8.37405 6.07271 7.44407 6.75839 6.75839C7.44407 6.07271 8.37405 5.6875 9.34375 5.6875C10.3134 5.6875 11.2434 6.07271 11.9291 6.75839C12.6148 7.44407 13 8.37405 13 9.34375ZM9.75 7.71875C9.75 7.61101 9.7072 7.50767 9.63101 7.43149C9.55483 7.3553 9.45149 7.3125 9.34375 7.3125C9.23601 7.3125 9.13267 7.3553 9.05649 7.43149C8.9803 7.50767 8.9375 7.61101 8.9375 7.71875V8.9375H7.71875C7.61101 8.9375 7.50767 8.9803 7.43149 9.05649C7.3553 9.13267 7.3125 9.23601 7.3125 9.34375C7.3125 9.45149 7.3553 9.55483 7.43149 9.63101C7.50767 9.7072 7.61101 9.75 7.71875 9.75H8.9375V10.9688C8.9375 11.0765 8.9803 11.1798 9.05649 11.256C9.13267 11.3322 9.23601 11.375 9.34375 11.375C9.45149 11.375 9.55483 11.3322 9.63101 11.256C9.7072 11.1798 9.75 11.0765 9.75 10.9688V9.75H10.9688C11.0765 9.75 11.1798 9.7072 11.256 9.63101C11.3322 9.55483 11.375 9.45149 11.375 9.34375C11.375 9.23601 11.3322 9.13267 11.256 9.05649C11.1798 8.9803 11.0765 8.9375 10.9688 8.9375H9.75V7.71875Z" fill="black"/>
</svg>